<mxfile host="app.diagrams.net" modified="2022-12-15T14:14:14.073Z" agent="5.0 (Windows NT 10.0; Win64; x64) AppleWebKit/537.36 (KHTML, like Gecko) Chrome/108.0.0.0 Safari/537.36 Edg/108.0.1462.46" etag="-mSHV_M4HovakfhI2TNJ" version="20.5.1" type="github">
  <diagram id="8J2SFaawExUzNW6ibgdx" name="第 1 页">
    <mxGraphModel dx="536" dy="330" grid="0" gridSize="10" guides="1" tooltips="1" connect="1" arrows="1" fold="1" page="1" pageScale="1" pageWidth="827" pageHeight="1169" math="0" shadow="0">
      <root>
        <mxCell id="0" />
        <mxCell id="1" parent="0" />
        <mxCell id="UmeLcSOO-KNwmI57y2sh-1" value="" style="ellipse;whiteSpace=wrap;html=1;aspect=fixed;" parent="1" vertex="1">
          <mxGeometry x="80" y="130.5" width="20" height="20" as="geometry" />
        </mxCell>
        <mxCell id="UmeLcSOO-KNwmI57y2sh-2" value="" style="ellipse;whiteSpace=wrap;html=1;aspect=fixed;" parent="1" vertex="1">
          <mxGeometry x="125" y="86" width="20" height="20" as="geometry" />
        </mxCell>
        <mxCell id="UmeLcSOO-KNwmI57y2sh-3" value="" style="ellipse;whiteSpace=wrap;html=1;aspect=fixed;" parent="1" vertex="1">
          <mxGeometry x="125" y="185" width="20" height="20" as="geometry" />
        </mxCell>
        <mxCell id="UmeLcSOO-KNwmI57y2sh-4" value="" style="ellipse;whiteSpace=wrap;html=1;aspect=fixed;" parent="1" vertex="1">
          <mxGeometry x="207" y="86" width="20" height="20" as="geometry" />
        </mxCell>
        <mxCell id="UmeLcSOO-KNwmI57y2sh-5" value="" style="ellipse;whiteSpace=wrap;html=1;aspect=fixed;" parent="1" vertex="1">
          <mxGeometry x="207" y="185" width="20" height="20" as="geometry" />
        </mxCell>
        <mxCell id="UmeLcSOO-KNwmI57y2sh-6" value="" style="ellipse;whiteSpace=wrap;html=1;aspect=fixed;" parent="1" vertex="1">
          <mxGeometry x="249" y="130.5" width="20" height="20" as="geometry" />
        </mxCell>
        <mxCell id="UmeLcSOO-KNwmI57y2sh-7" value="A" style="text;html=1;strokeColor=none;fillColor=none;align=center;verticalAlign=middle;whiteSpace=wrap;rounded=0;" parent="1" vertex="1">
          <mxGeometry x="129.5" y="91" width="11" height="10" as="geometry" />
        </mxCell>
        <mxCell id="UmeLcSOO-KNwmI57y2sh-8" value="B" style="text;html=1;strokeColor=none;fillColor=none;align=center;verticalAlign=middle;whiteSpace=wrap;rounded=0;" parent="1" vertex="1">
          <mxGeometry x="128" y="187.5" width="14" height="15" as="geometry" />
        </mxCell>
        <mxCell id="UmeLcSOO-KNwmI57y2sh-9" value="C" style="text;html=1;strokeColor=none;fillColor=none;align=center;verticalAlign=middle;whiteSpace=wrap;rounded=0;" parent="1" vertex="1">
          <mxGeometry x="207" y="88.5" width="20" height="15" as="geometry" />
        </mxCell>
        <mxCell id="UmeLcSOO-KNwmI57y2sh-10" value="D" style="text;html=1;strokeColor=none;fillColor=none;align=center;verticalAlign=middle;whiteSpace=wrap;rounded=0;" parent="1" vertex="1">
          <mxGeometry x="208" y="187.5" width="18" height="14" as="geometry" />
        </mxCell>
        <mxCell id="UmeLcSOO-KNwmI57y2sh-11" value="S" style="text;html=1;strokeColor=none;fillColor=none;align=center;verticalAlign=middle;whiteSpace=wrap;rounded=0;" parent="1" vertex="1">
          <mxGeometry x="81" y="134" width="18" height="13" as="geometry" />
        </mxCell>
        <mxCell id="UmeLcSOO-KNwmI57y2sh-12" value="T" style="text;html=1;strokeColor=none;fillColor=none;align=center;verticalAlign=middle;whiteSpace=wrap;rounded=0;" parent="1" vertex="1">
          <mxGeometry x="252.5" y="137" width="13" height="7.5" as="geometry" />
        </mxCell>
        <mxCell id="UmeLcSOO-KNwmI57y2sh-14" value="" style="endArrow=classic;html=1;rounded=0;entryX=0.037;entryY=0.768;entryDx=0;entryDy=0;entryPerimeter=0;" parent="1" target="UmeLcSOO-KNwmI57y2sh-2" edge="1">
          <mxGeometry width="50" height="50" relative="1" as="geometry">
            <mxPoint x="95" y="132" as="sourcePoint" />
            <mxPoint x="122" y="106" as="targetPoint" />
          </mxGeometry>
        </mxCell>
        <mxCell id="UmeLcSOO-KNwmI57y2sh-16" value="" style="endArrow=classic;html=1;rounded=0;entryX=0;entryY=0.5;entryDx=0;entryDy=0;" parent="1" target="UmeLcSOO-KNwmI57y2sh-9" edge="1">
          <mxGeometry width="50" height="50" relative="1" as="geometry">
            <mxPoint x="145" y="95.71" as="sourcePoint" />
            <mxPoint x="206" y="95" as="targetPoint" />
          </mxGeometry>
        </mxCell>
        <mxCell id="UmeLcSOO-KNwmI57y2sh-18" value="" style="endArrow=classic;html=1;rounded=0;entryX=0;entryY=0;entryDx=0;entryDy=0;exitX=1;exitY=1;exitDx=0;exitDy=0;" parent="1" source="UmeLcSOO-KNwmI57y2sh-4" target="UmeLcSOO-KNwmI57y2sh-6" edge="1">
          <mxGeometry width="50" height="50" relative="1" as="geometry">
            <mxPoint x="174" y="167" as="sourcePoint" />
            <mxPoint x="224" y="117" as="targetPoint" />
          </mxGeometry>
        </mxCell>
        <mxCell id="UmeLcSOO-KNwmI57y2sh-20" value="" style="endArrow=classic;html=1;rounded=0;entryX=0;entryY=1;entryDx=0;entryDy=0;exitX=0.5;exitY=0;exitDx=0;exitDy=0;" parent="1" source="UmeLcSOO-KNwmI57y2sh-5" target="UmeLcSOO-KNwmI57y2sh-6" edge="1">
          <mxGeometry width="50" height="50" relative="1" as="geometry">
            <mxPoint x="174" y="167" as="sourcePoint" />
            <mxPoint x="224" y="117" as="targetPoint" />
          </mxGeometry>
        </mxCell>
        <mxCell id="UmeLcSOO-KNwmI57y2sh-21" value="" style="endArrow=classic;html=1;rounded=0;entryX=0;entryY=0.5;entryDx=0;entryDy=0;exitX=1;exitY=0.5;exitDx=0;exitDy=0;" parent="1" source="UmeLcSOO-KNwmI57y2sh-3" target="UmeLcSOO-KNwmI57y2sh-10" edge="1">
          <mxGeometry width="50" height="50" relative="1" as="geometry">
            <mxPoint x="136" y="175" as="sourcePoint" />
            <mxPoint x="186" y="125" as="targetPoint" />
          </mxGeometry>
        </mxCell>
        <mxCell id="UmeLcSOO-KNwmI57y2sh-22" value="" style="endArrow=classic;html=1;rounded=0;exitX=1;exitY=1;exitDx=0;exitDy=0;entryX=0;entryY=0;entryDx=0;entryDy=0;" parent="1" source="UmeLcSOO-KNwmI57y2sh-1" target="UmeLcSOO-KNwmI57y2sh-3" edge="1">
          <mxGeometry width="50" height="50" relative="1" as="geometry">
            <mxPoint x="136" y="175" as="sourcePoint" />
            <mxPoint x="186" y="125" as="targetPoint" />
          </mxGeometry>
        </mxCell>
        <mxCell id="UmeLcSOO-KNwmI57y2sh-23" value="" style="endArrow=classic;html=1;rounded=0;exitX=1;exitY=0;exitDx=0;exitDy=0;entryX=0;entryY=1;entryDx=0;entryDy=0;" parent="1" source="UmeLcSOO-KNwmI57y2sh-3" target="UmeLcSOO-KNwmI57y2sh-4" edge="1">
          <mxGeometry width="50" height="50" relative="1" as="geometry">
            <mxPoint x="136" y="175" as="sourcePoint" />
            <mxPoint x="186" y="125" as="targetPoint" />
          </mxGeometry>
        </mxCell>
        <mxCell id="UmeLcSOO-KNwmI57y2sh-24" value="" style="endArrow=classic;html=1;rounded=0;exitX=1;exitY=1;exitDx=0;exitDy=0;entryX=0.25;entryY=0;entryDx=0;entryDy=0;" parent="1" source="UmeLcSOO-KNwmI57y2sh-2" target="UmeLcSOO-KNwmI57y2sh-10" edge="1">
          <mxGeometry width="50" height="50" relative="1" as="geometry">
            <mxPoint x="136" y="175" as="sourcePoint" />
            <mxPoint x="186" y="125" as="targetPoint" />
          </mxGeometry>
        </mxCell>
        <mxCell id="UmeLcSOO-KNwmI57y2sh-25" value="&lt;p style=&quot;&quot;&gt;&lt;font style=&quot;font-size: 11px;&quot;&gt;0/7&lt;/font&gt;&lt;/p&gt;" style="text;html=1;strokeColor=none;fillColor=none;align=center;verticalAlign=middle;whiteSpace=wrap;rounded=0;fontSize=2;" parent="1" vertex="1">
          <mxGeometry x="95" y="103.5" width="15" height="14" as="geometry" />
        </mxCell>
        <mxCell id="UmeLcSOO-KNwmI57y2sh-26" value="0/6" style="text;html=1;strokeColor=none;fillColor=none;align=center;verticalAlign=middle;whiteSpace=wrap;rounded=0;fontSize=11;" parent="1" vertex="1">
          <mxGeometry x="93" y="167" width="12" height="10" as="geometry" />
        </mxCell>
        <mxCell id="UmeLcSOO-KNwmI57y2sh-27" value="0/4" style="text;html=1;strokeColor=none;fillColor=none;align=center;verticalAlign=middle;whiteSpace=wrap;rounded=0;fontSize=11;" parent="1" vertex="1">
          <mxGeometry x="165" y="81" width="11" height="13" as="geometry" />
        </mxCell>
        <mxCell id="UmeLcSOO-KNwmI57y2sh-28" value="0/3" style="text;html=1;strokeColor=none;fillColor=none;align=center;verticalAlign=middle;whiteSpace=wrap;rounded=0;fontSize=11;" parent="1" vertex="1">
          <mxGeometry x="169" y="197" width="11" height="12" as="geometry" />
        </mxCell>
        <mxCell id="UmeLcSOO-KNwmI57y2sh-29" value="0/2" style="text;html=1;strokeColor=none;fillColor=none;align=center;verticalAlign=middle;whiteSpace=wrap;rounded=0;fontSize=11;" parent="1" vertex="1">
          <mxGeometry x="143" y="155" width="15" height="12" as="geometry" />
        </mxCell>
        <mxCell id="UmeLcSOO-KNwmI57y2sh-30" value="0/2" style="text;html=1;strokeColor=none;fillColor=none;align=center;verticalAlign=middle;whiteSpace=wrap;rounded=0;fontSize=11;" parent="1" vertex="1">
          <mxGeometry x="140" y="123" width="16" height="5" as="geometry" />
        </mxCell>
        <mxCell id="UmeLcSOO-KNwmI57y2sh-31" value="0/9" style="text;html=1;strokeColor=none;fillColor=none;align=center;verticalAlign=middle;whiteSpace=wrap;rounded=0;fontSize=11;" parent="1" vertex="1">
          <mxGeometry x="239" y="106" width="10" height="8" as="geometry" />
        </mxCell>
        <mxCell id="UmeLcSOO-KNwmI57y2sh-32" value="0/5" style="text;html=1;strokeColor=none;fillColor=none;align=center;verticalAlign=middle;whiteSpace=wrap;rounded=0;fontSize=11;" parent="1" vertex="1">
          <mxGeometry x="239" y="167" width="7" height="13" as="geometry" />
        </mxCell>
        <mxCell id="UmeLcSOO-KNwmI57y2sh-33" value="" style="ellipse;whiteSpace=wrap;html=1;aspect=fixed;" parent="1" vertex="1">
          <mxGeometry x="319" y="130.5" width="20" height="20" as="geometry" />
        </mxCell>
        <mxCell id="UmeLcSOO-KNwmI57y2sh-34" value="" style="ellipse;whiteSpace=wrap;html=1;aspect=fixed;" parent="1" vertex="1">
          <mxGeometry x="364" y="86" width="20" height="20" as="geometry" />
        </mxCell>
        <mxCell id="UmeLcSOO-KNwmI57y2sh-35" value="" style="ellipse;whiteSpace=wrap;html=1;aspect=fixed;" parent="1" vertex="1">
          <mxGeometry x="364" y="185" width="20" height="20" as="geometry" />
        </mxCell>
        <mxCell id="UmeLcSOO-KNwmI57y2sh-36" value="" style="ellipse;whiteSpace=wrap;html=1;aspect=fixed;" parent="1" vertex="1">
          <mxGeometry x="446" y="86" width="20" height="20" as="geometry" />
        </mxCell>
        <mxCell id="UmeLcSOO-KNwmI57y2sh-37" value="" style="ellipse;whiteSpace=wrap;html=1;aspect=fixed;" parent="1" vertex="1">
          <mxGeometry x="446" y="185" width="20" height="20" as="geometry" />
        </mxCell>
        <mxCell id="UmeLcSOO-KNwmI57y2sh-38" value="" style="ellipse;whiteSpace=wrap;html=1;aspect=fixed;" parent="1" vertex="1">
          <mxGeometry x="488" y="130.5" width="20" height="20" as="geometry" />
        </mxCell>
        <mxCell id="UmeLcSOO-KNwmI57y2sh-39" value="A" style="text;html=1;strokeColor=none;fillColor=none;align=center;verticalAlign=middle;whiteSpace=wrap;rounded=0;" parent="1" vertex="1">
          <mxGeometry x="368.5" y="91" width="11" height="10" as="geometry" />
        </mxCell>
        <mxCell id="UmeLcSOO-KNwmI57y2sh-40" value="B" style="text;html=1;strokeColor=none;fillColor=none;align=center;verticalAlign=middle;whiteSpace=wrap;rounded=0;" parent="1" vertex="1">
          <mxGeometry x="367" y="187.5" width="14" height="15" as="geometry" />
        </mxCell>
        <mxCell id="UmeLcSOO-KNwmI57y2sh-41" value="C" style="text;html=1;strokeColor=none;fillColor=none;align=center;verticalAlign=middle;whiteSpace=wrap;rounded=0;" parent="1" vertex="1">
          <mxGeometry x="446" y="88.5" width="20" height="15" as="geometry" />
        </mxCell>
        <mxCell id="UmeLcSOO-KNwmI57y2sh-42" value="D" style="text;html=1;strokeColor=none;fillColor=none;align=center;verticalAlign=middle;whiteSpace=wrap;rounded=0;" parent="1" vertex="1">
          <mxGeometry x="447" y="187.5" width="18" height="14" as="geometry" />
        </mxCell>
        <mxCell id="UmeLcSOO-KNwmI57y2sh-43" value="S" style="text;html=1;strokeColor=none;fillColor=none;align=center;verticalAlign=middle;whiteSpace=wrap;rounded=0;" parent="1" vertex="1">
          <mxGeometry x="320" y="134" width="18" height="13" as="geometry" />
        </mxCell>
        <mxCell id="UmeLcSOO-KNwmI57y2sh-44" value="T" style="text;html=1;strokeColor=none;fillColor=none;align=center;verticalAlign=middle;whiteSpace=wrap;rounded=0;" parent="1" vertex="1">
          <mxGeometry x="491.5" y="137" width="13" height="7.5" as="geometry" />
        </mxCell>
        <mxCell id="UmeLcSOO-KNwmI57y2sh-45" value="" style="endArrow=classic;html=1;rounded=0;entryX=0.037;entryY=0.768;entryDx=0;entryDy=0;entryPerimeter=0;strokeColor=#3333FF;" parent="1" target="UmeLcSOO-KNwmI57y2sh-34" edge="1">
          <mxGeometry width="50" height="50" relative="1" as="geometry">
            <mxPoint x="334" y="132" as="sourcePoint" />
            <mxPoint x="361" y="106" as="targetPoint" />
          </mxGeometry>
        </mxCell>
        <mxCell id="UmeLcSOO-KNwmI57y2sh-46" value="" style="endArrow=classic;html=1;rounded=0;entryX=0;entryY=0.5;entryDx=0;entryDy=0;strokeColor=#3333FF;" parent="1" target="UmeLcSOO-KNwmI57y2sh-41" edge="1">
          <mxGeometry width="50" height="50" relative="1" as="geometry">
            <mxPoint x="384" y="95.70999999999998" as="sourcePoint" />
            <mxPoint x="445" y="95" as="targetPoint" />
          </mxGeometry>
        </mxCell>
        <mxCell id="UmeLcSOO-KNwmI57y2sh-47" value="" style="endArrow=classic;html=1;rounded=0;entryX=0;entryY=0;entryDx=0;entryDy=0;exitX=1;exitY=1;exitDx=0;exitDy=0;strokeColor=#3333FF;" parent="1" source="UmeLcSOO-KNwmI57y2sh-36" target="UmeLcSOO-KNwmI57y2sh-38" edge="1">
          <mxGeometry width="50" height="50" relative="1" as="geometry">
            <mxPoint x="413" y="167" as="sourcePoint" />
            <mxPoint x="463" y="117" as="targetPoint" />
          </mxGeometry>
        </mxCell>
        <mxCell id="UmeLcSOO-KNwmI57y2sh-48" value="" style="endArrow=classic;html=1;rounded=0;entryX=0;entryY=1;entryDx=0;entryDy=0;exitX=0.5;exitY=0;exitDx=0;exitDy=0;" parent="1" source="UmeLcSOO-KNwmI57y2sh-37" target="UmeLcSOO-KNwmI57y2sh-38" edge="1">
          <mxGeometry width="50" height="50" relative="1" as="geometry">
            <mxPoint x="413" y="167" as="sourcePoint" />
            <mxPoint x="463" y="117" as="targetPoint" />
          </mxGeometry>
        </mxCell>
        <mxCell id="UmeLcSOO-KNwmI57y2sh-49" value="" style="endArrow=classic;html=1;rounded=0;entryX=0;entryY=0.5;entryDx=0;entryDy=0;exitX=1;exitY=0.5;exitDx=0;exitDy=0;" parent="1" source="UmeLcSOO-KNwmI57y2sh-35" target="UmeLcSOO-KNwmI57y2sh-42" edge="1">
          <mxGeometry width="50" height="50" relative="1" as="geometry">
            <mxPoint x="375" y="175" as="sourcePoint" />
            <mxPoint x="425" y="125" as="targetPoint" />
          </mxGeometry>
        </mxCell>
        <mxCell id="UmeLcSOO-KNwmI57y2sh-50" value="" style="endArrow=classic;html=1;rounded=0;exitX=1;exitY=1;exitDx=0;exitDy=0;entryX=0;entryY=0;entryDx=0;entryDy=0;" parent="1" source="UmeLcSOO-KNwmI57y2sh-33" target="UmeLcSOO-KNwmI57y2sh-35" edge="1">
          <mxGeometry width="50" height="50" relative="1" as="geometry">
            <mxPoint x="375" y="175" as="sourcePoint" />
            <mxPoint x="425" y="125" as="targetPoint" />
          </mxGeometry>
        </mxCell>
        <mxCell id="UmeLcSOO-KNwmI57y2sh-51" value="" style="endArrow=classic;html=1;rounded=0;exitX=1;exitY=0;exitDx=0;exitDy=0;entryX=0;entryY=1;entryDx=0;entryDy=0;" parent="1" source="UmeLcSOO-KNwmI57y2sh-35" target="UmeLcSOO-KNwmI57y2sh-36" edge="1">
          <mxGeometry width="50" height="50" relative="1" as="geometry">
            <mxPoint x="375" y="175" as="sourcePoint" />
            <mxPoint x="425" y="125" as="targetPoint" />
          </mxGeometry>
        </mxCell>
        <mxCell id="UmeLcSOO-KNwmI57y2sh-52" value="" style="endArrow=classic;html=1;rounded=0;exitX=1;exitY=1;exitDx=0;exitDy=0;entryX=0.25;entryY=0;entryDx=0;entryDy=0;" parent="1" source="UmeLcSOO-KNwmI57y2sh-34" target="UmeLcSOO-KNwmI57y2sh-42" edge="1">
          <mxGeometry width="50" height="50" relative="1" as="geometry">
            <mxPoint x="375" y="175" as="sourcePoint" />
            <mxPoint x="425" y="125" as="targetPoint" />
          </mxGeometry>
        </mxCell>
        <mxCell id="UmeLcSOO-KNwmI57y2sh-53" value="&lt;p style=&quot;&quot;&gt;&lt;font style=&quot;font-size: 11px;&quot;&gt;7&lt;/font&gt;&lt;/p&gt;" style="text;html=1;strokeColor=none;fillColor=none;align=center;verticalAlign=middle;whiteSpace=wrap;rounded=0;fontSize=2;" parent="1" vertex="1">
          <mxGeometry x="334" y="103.5" width="15" height="14" as="geometry" />
        </mxCell>
        <mxCell id="UmeLcSOO-KNwmI57y2sh-54" value="6" style="text;html=1;strokeColor=none;fillColor=none;align=center;verticalAlign=middle;whiteSpace=wrap;rounded=0;fontSize=11;" parent="1" vertex="1">
          <mxGeometry x="334" y="163" width="12" height="10" as="geometry" />
        </mxCell>
        <mxCell id="UmeLcSOO-KNwmI57y2sh-55" value="4" style="text;html=1;strokeColor=none;fillColor=none;align=center;verticalAlign=middle;whiteSpace=wrap;rounded=0;fontSize=11;" parent="1" vertex="1">
          <mxGeometry x="404" y="81" width="11" height="13" as="geometry" />
        </mxCell>
        <mxCell id="UmeLcSOO-KNwmI57y2sh-56" value="3" style="text;html=1;strokeColor=none;fillColor=none;align=center;verticalAlign=middle;whiteSpace=wrap;rounded=0;fontSize=11;" parent="1" vertex="1">
          <mxGeometry x="408" y="197" width="11" height="12" as="geometry" />
        </mxCell>
        <mxCell id="UmeLcSOO-KNwmI57y2sh-57" value="2" style="text;html=1;strokeColor=none;fillColor=none;align=center;verticalAlign=middle;whiteSpace=wrap;rounded=0;fontSize=11;" parent="1" vertex="1">
          <mxGeometry x="386" y="155" width="11" height="12" as="geometry" />
        </mxCell>
        <mxCell id="UmeLcSOO-KNwmI57y2sh-58" value="2" style="text;html=1;strokeColor=none;fillColor=none;align=center;verticalAlign=middle;whiteSpace=wrap;rounded=0;fontSize=11;" parent="1" vertex="1">
          <mxGeometry x="386" y="123" width="9" height="5" as="geometry" />
        </mxCell>
        <mxCell id="UmeLcSOO-KNwmI57y2sh-59" value="9" style="text;html=1;strokeColor=none;fillColor=none;align=center;verticalAlign=middle;whiteSpace=wrap;rounded=0;fontSize=11;" parent="1" vertex="1">
          <mxGeometry x="478" y="106" width="10" height="8" as="geometry" />
        </mxCell>
        <mxCell id="UmeLcSOO-KNwmI57y2sh-60" value="5" style="text;html=1;strokeColor=none;fillColor=none;align=center;verticalAlign=middle;whiteSpace=wrap;rounded=0;fontSize=11;" parent="1" vertex="1">
          <mxGeometry x="478" y="167" width="7" height="13" as="geometry" />
        </mxCell>
        <mxCell id="3re6_Ih89YebMv_0j3Ld-1" value="network G and flow f" style="text;html=1;strokeColor=none;fillColor=none;align=center;verticalAlign=middle;whiteSpace=wrap;rounded=0;" vertex="1" parent="1">
          <mxGeometry x="115.5" y="224" width="118" height="21" as="geometry" />
        </mxCell>
        <mxCell id="3re6_Ih89YebMv_0j3Ld-2" value="residual network &lt;span style=&quot;font-size: 10px;&quot;&gt;G&lt;sub&gt;f&lt;/sub&gt;&lt;/span&gt;" style="text;html=1;strokeColor=none;fillColor=none;align=center;verticalAlign=middle;whiteSpace=wrap;rounded=0;" vertex="1" parent="1">
          <mxGeometry x="346" y="224" width="151" height="22" as="geometry" />
        </mxCell>
        <mxCell id="3re6_Ih89YebMv_0j3Ld-4" value="" style="ellipse;whiteSpace=wrap;html=1;aspect=fixed;" vertex="1" parent="1">
          <mxGeometry x="80" y="338.5" width="20" height="20" as="geometry" />
        </mxCell>
        <mxCell id="3re6_Ih89YebMv_0j3Ld-5" value="" style="ellipse;whiteSpace=wrap;html=1;aspect=fixed;" vertex="1" parent="1">
          <mxGeometry x="125" y="294" width="20" height="20" as="geometry" />
        </mxCell>
        <mxCell id="3re6_Ih89YebMv_0j3Ld-6" value="" style="ellipse;whiteSpace=wrap;html=1;aspect=fixed;" vertex="1" parent="1">
          <mxGeometry x="125" y="393" width="20" height="20" as="geometry" />
        </mxCell>
        <mxCell id="3re6_Ih89YebMv_0j3Ld-7" value="" style="ellipse;whiteSpace=wrap;html=1;aspect=fixed;" vertex="1" parent="1">
          <mxGeometry x="207" y="294" width="20" height="20" as="geometry" />
        </mxCell>
        <mxCell id="3re6_Ih89YebMv_0j3Ld-8" value="" style="ellipse;whiteSpace=wrap;html=1;aspect=fixed;" vertex="1" parent="1">
          <mxGeometry x="207" y="393" width="20" height="20" as="geometry" />
        </mxCell>
        <mxCell id="3re6_Ih89YebMv_0j3Ld-9" value="" style="ellipse;whiteSpace=wrap;html=1;aspect=fixed;" vertex="1" parent="1">
          <mxGeometry x="249" y="338.5" width="20" height="20" as="geometry" />
        </mxCell>
        <mxCell id="3re6_Ih89YebMv_0j3Ld-10" value="A" style="text;html=1;strokeColor=none;fillColor=none;align=center;verticalAlign=middle;whiteSpace=wrap;rounded=0;" vertex="1" parent="1">
          <mxGeometry x="129.5" y="299" width="11" height="10" as="geometry" />
        </mxCell>
        <mxCell id="3re6_Ih89YebMv_0j3Ld-11" value="B" style="text;html=1;strokeColor=none;fillColor=none;align=center;verticalAlign=middle;whiteSpace=wrap;rounded=0;" vertex="1" parent="1">
          <mxGeometry x="128" y="395.5" width="14" height="15" as="geometry" />
        </mxCell>
        <mxCell id="3re6_Ih89YebMv_0j3Ld-12" value="C" style="text;html=1;strokeColor=none;fillColor=none;align=center;verticalAlign=middle;whiteSpace=wrap;rounded=0;" vertex="1" parent="1">
          <mxGeometry x="207" y="296.5" width="20" height="15" as="geometry" />
        </mxCell>
        <mxCell id="3re6_Ih89YebMv_0j3Ld-13" value="D" style="text;html=1;strokeColor=none;fillColor=none;align=center;verticalAlign=middle;whiteSpace=wrap;rounded=0;" vertex="1" parent="1">
          <mxGeometry x="208" y="395.5" width="18" height="14" as="geometry" />
        </mxCell>
        <mxCell id="3re6_Ih89YebMv_0j3Ld-14" value="S" style="text;html=1;strokeColor=none;fillColor=none;align=center;verticalAlign=middle;whiteSpace=wrap;rounded=0;" vertex="1" parent="1">
          <mxGeometry x="81" y="342" width="18" height="13" as="geometry" />
        </mxCell>
        <mxCell id="3re6_Ih89YebMv_0j3Ld-15" value="T" style="text;html=1;strokeColor=none;fillColor=none;align=center;verticalAlign=middle;whiteSpace=wrap;rounded=0;" vertex="1" parent="1">
          <mxGeometry x="252.5" y="345" width="13" height="7.5" as="geometry" />
        </mxCell>
        <mxCell id="3re6_Ih89YebMv_0j3Ld-16" value="" style="endArrow=classic;html=1;rounded=0;entryX=0.037;entryY=0.768;entryDx=0;entryDy=0;entryPerimeter=0;" edge="1" parent="1" target="3re6_Ih89YebMv_0j3Ld-5">
          <mxGeometry width="50" height="50" relative="1" as="geometry">
            <mxPoint x="95" y="340" as="sourcePoint" />
            <mxPoint x="122" y="314" as="targetPoint" />
          </mxGeometry>
        </mxCell>
        <mxCell id="3re6_Ih89YebMv_0j3Ld-17" value="" style="endArrow=classic;html=1;rounded=0;entryX=0;entryY=0.5;entryDx=0;entryDy=0;" edge="1" parent="1" target="3re6_Ih89YebMv_0j3Ld-12">
          <mxGeometry width="50" height="50" relative="1" as="geometry">
            <mxPoint x="145" y="303.71" as="sourcePoint" />
            <mxPoint x="206" y="303" as="targetPoint" />
          </mxGeometry>
        </mxCell>
        <mxCell id="3re6_Ih89YebMv_0j3Ld-18" value="" style="endArrow=classic;html=1;rounded=0;entryX=0;entryY=0;entryDx=0;entryDy=0;exitX=1;exitY=1;exitDx=0;exitDy=0;" edge="1" parent="1" source="3re6_Ih89YebMv_0j3Ld-7" target="3re6_Ih89YebMv_0j3Ld-9">
          <mxGeometry width="50" height="50" relative="1" as="geometry">
            <mxPoint x="174" y="375" as="sourcePoint" />
            <mxPoint x="224" y="325" as="targetPoint" />
          </mxGeometry>
        </mxCell>
        <mxCell id="3re6_Ih89YebMv_0j3Ld-19" value="" style="endArrow=classic;html=1;rounded=0;entryX=0;entryY=1;entryDx=0;entryDy=0;exitX=0.5;exitY=0;exitDx=0;exitDy=0;" edge="1" parent="1" source="3re6_Ih89YebMv_0j3Ld-8" target="3re6_Ih89YebMv_0j3Ld-9">
          <mxGeometry width="50" height="50" relative="1" as="geometry">
            <mxPoint x="174" y="375" as="sourcePoint" />
            <mxPoint x="224" y="325" as="targetPoint" />
          </mxGeometry>
        </mxCell>
        <mxCell id="3re6_Ih89YebMv_0j3Ld-20" value="" style="endArrow=classic;html=1;rounded=0;entryX=0;entryY=0.5;entryDx=0;entryDy=0;exitX=1;exitY=0.5;exitDx=0;exitDy=0;" edge="1" parent="1" source="3re6_Ih89YebMv_0j3Ld-6" target="3re6_Ih89YebMv_0j3Ld-13">
          <mxGeometry width="50" height="50" relative="1" as="geometry">
            <mxPoint x="136" y="383" as="sourcePoint" />
            <mxPoint x="186" y="333" as="targetPoint" />
          </mxGeometry>
        </mxCell>
        <mxCell id="3re6_Ih89YebMv_0j3Ld-21" value="" style="endArrow=classic;html=1;rounded=0;exitX=1;exitY=1;exitDx=0;exitDy=0;entryX=0;entryY=0;entryDx=0;entryDy=0;" edge="1" parent="1" source="3re6_Ih89YebMv_0j3Ld-4" target="3re6_Ih89YebMv_0j3Ld-6">
          <mxGeometry width="50" height="50" relative="1" as="geometry">
            <mxPoint x="136" y="383" as="sourcePoint" />
            <mxPoint x="186" y="333" as="targetPoint" />
          </mxGeometry>
        </mxCell>
        <mxCell id="3re6_Ih89YebMv_0j3Ld-22" value="" style="endArrow=classic;html=1;rounded=0;exitX=1;exitY=0;exitDx=0;exitDy=0;entryX=0;entryY=1;entryDx=0;entryDy=0;" edge="1" parent="1" source="3re6_Ih89YebMv_0j3Ld-6" target="3re6_Ih89YebMv_0j3Ld-7">
          <mxGeometry width="50" height="50" relative="1" as="geometry">
            <mxPoint x="136" y="383" as="sourcePoint" />
            <mxPoint x="186" y="333" as="targetPoint" />
          </mxGeometry>
        </mxCell>
        <mxCell id="3re6_Ih89YebMv_0j3Ld-23" value="" style="endArrow=classic;html=1;rounded=0;exitX=1;exitY=1;exitDx=0;exitDy=0;entryX=0.25;entryY=0;entryDx=0;entryDy=0;" edge="1" parent="1" source="3re6_Ih89YebMv_0j3Ld-5" target="3re6_Ih89YebMv_0j3Ld-13">
          <mxGeometry width="50" height="50" relative="1" as="geometry">
            <mxPoint x="136" y="383" as="sourcePoint" />
            <mxPoint x="186" y="333" as="targetPoint" />
          </mxGeometry>
        </mxCell>
        <mxCell id="3re6_Ih89YebMv_0j3Ld-24" value="&lt;p style=&quot;&quot;&gt;&lt;font style=&quot;font-size: 11px;&quot;&gt;4/7&lt;/font&gt;&lt;/p&gt;" style="text;html=1;strokeColor=none;fillColor=none;align=center;verticalAlign=middle;whiteSpace=wrap;rounded=0;fontSize=2;" vertex="1" parent="1">
          <mxGeometry x="95" y="311.5" width="15" height="14" as="geometry" />
        </mxCell>
        <mxCell id="3re6_Ih89YebMv_0j3Ld-25" value="0/6" style="text;html=1;strokeColor=none;fillColor=none;align=center;verticalAlign=middle;whiteSpace=wrap;rounded=0;fontSize=11;" vertex="1" parent="1">
          <mxGeometry x="93" y="375" width="12" height="10" as="geometry" />
        </mxCell>
        <mxCell id="3re6_Ih89YebMv_0j3Ld-26" value="4/4" style="text;html=1;strokeColor=none;fillColor=none;align=center;verticalAlign=middle;whiteSpace=wrap;rounded=0;fontSize=11;" vertex="1" parent="1">
          <mxGeometry x="165" y="289" width="11" height="13" as="geometry" />
        </mxCell>
        <mxCell id="3re6_Ih89YebMv_0j3Ld-27" value="0/3" style="text;html=1;strokeColor=none;fillColor=none;align=center;verticalAlign=middle;whiteSpace=wrap;rounded=0;fontSize=11;" vertex="1" parent="1">
          <mxGeometry x="169" y="405" width="11" height="12" as="geometry" />
        </mxCell>
        <mxCell id="3re6_Ih89YebMv_0j3Ld-28" value="0/2" style="text;html=1;strokeColor=none;fillColor=none;align=center;verticalAlign=middle;whiteSpace=wrap;rounded=0;fontSize=11;" vertex="1" parent="1">
          <mxGeometry x="143" y="363" width="15" height="12" as="geometry" />
        </mxCell>
        <mxCell id="3re6_Ih89YebMv_0j3Ld-29" value="0/2" style="text;html=1;strokeColor=none;fillColor=none;align=center;verticalAlign=middle;whiteSpace=wrap;rounded=0;fontSize=11;" vertex="1" parent="1">
          <mxGeometry x="140" y="331" width="16" height="5" as="geometry" />
        </mxCell>
        <mxCell id="3re6_Ih89YebMv_0j3Ld-30" value="4/9" style="text;html=1;strokeColor=none;fillColor=none;align=center;verticalAlign=middle;whiteSpace=wrap;rounded=0;fontSize=11;" vertex="1" parent="1">
          <mxGeometry x="239" y="314" width="10" height="8" as="geometry" />
        </mxCell>
        <mxCell id="3re6_Ih89YebMv_0j3Ld-31" value="0/5" style="text;html=1;strokeColor=none;fillColor=none;align=center;verticalAlign=middle;whiteSpace=wrap;rounded=0;fontSize=11;" vertex="1" parent="1">
          <mxGeometry x="239" y="375" width="7" height="13" as="geometry" />
        </mxCell>
        <mxCell id="3re6_Ih89YebMv_0j3Ld-32" value="" style="ellipse;whiteSpace=wrap;html=1;aspect=fixed;" vertex="1" parent="1">
          <mxGeometry x="319" y="338.5" width="20" height="20" as="geometry" />
        </mxCell>
        <mxCell id="3re6_Ih89YebMv_0j3Ld-33" value="" style="ellipse;whiteSpace=wrap;html=1;aspect=fixed;" vertex="1" parent="1">
          <mxGeometry x="364" y="294" width="20" height="20" as="geometry" />
        </mxCell>
        <mxCell id="3re6_Ih89YebMv_0j3Ld-34" value="" style="ellipse;whiteSpace=wrap;html=1;aspect=fixed;" vertex="1" parent="1">
          <mxGeometry x="364" y="393" width="20" height="20" as="geometry" />
        </mxCell>
        <mxCell id="3re6_Ih89YebMv_0j3Ld-35" value="" style="ellipse;whiteSpace=wrap;html=1;aspect=fixed;" vertex="1" parent="1">
          <mxGeometry x="446" y="294" width="20" height="20" as="geometry" />
        </mxCell>
        <mxCell id="3re6_Ih89YebMv_0j3Ld-36" value="" style="ellipse;whiteSpace=wrap;html=1;aspect=fixed;" vertex="1" parent="1">
          <mxGeometry x="446" y="393" width="20" height="20" as="geometry" />
        </mxCell>
        <mxCell id="3re6_Ih89YebMv_0j3Ld-37" value="" style="ellipse;whiteSpace=wrap;html=1;aspect=fixed;" vertex="1" parent="1">
          <mxGeometry x="488" y="338.5" width="20" height="20" as="geometry" />
        </mxCell>
        <mxCell id="3re6_Ih89YebMv_0j3Ld-38" value="A" style="text;html=1;strokeColor=none;fillColor=none;align=center;verticalAlign=middle;whiteSpace=wrap;rounded=0;" vertex="1" parent="1">
          <mxGeometry x="368.5" y="299" width="11" height="10" as="geometry" />
        </mxCell>
        <mxCell id="3re6_Ih89YebMv_0j3Ld-39" value="B" style="text;html=1;strokeColor=none;fillColor=none;align=center;verticalAlign=middle;whiteSpace=wrap;rounded=0;" vertex="1" parent="1">
          <mxGeometry x="367" y="395.5" width="14" height="15" as="geometry" />
        </mxCell>
        <mxCell id="3re6_Ih89YebMv_0j3Ld-40" value="C" style="text;html=1;strokeColor=none;fillColor=none;align=center;verticalAlign=middle;whiteSpace=wrap;rounded=0;" vertex="1" parent="1">
          <mxGeometry x="446" y="296.5" width="20" height="15" as="geometry" />
        </mxCell>
        <mxCell id="3re6_Ih89YebMv_0j3Ld-41" value="D" style="text;html=1;strokeColor=none;fillColor=none;align=center;verticalAlign=middle;whiteSpace=wrap;rounded=0;" vertex="1" parent="1">
          <mxGeometry x="447" y="395.5" width="18" height="14" as="geometry" />
        </mxCell>
        <mxCell id="3re6_Ih89YebMv_0j3Ld-42" value="S" style="text;html=1;strokeColor=none;fillColor=none;align=center;verticalAlign=middle;whiteSpace=wrap;rounded=0;" vertex="1" parent="1">
          <mxGeometry x="320" y="342" width="18" height="13" as="geometry" />
        </mxCell>
        <mxCell id="3re6_Ih89YebMv_0j3Ld-43" value="T" style="text;html=1;strokeColor=none;fillColor=none;align=center;verticalAlign=middle;whiteSpace=wrap;rounded=0;" vertex="1" parent="1">
          <mxGeometry x="491.5" y="345" width="13" height="7.5" as="geometry" />
        </mxCell>
        <mxCell id="3re6_Ih89YebMv_0j3Ld-44" value="" style="endArrow=classic;html=1;rounded=0;entryX=0.037;entryY=0.768;entryDx=0;entryDy=0;entryPerimeter=0;strokeColor=#3333FF;" edge="1" parent="1" target="3re6_Ih89YebMv_0j3Ld-33">
          <mxGeometry width="50" height="50" relative="1" as="geometry">
            <mxPoint x="334" y="340" as="sourcePoint" />
            <mxPoint x="361" y="314" as="targetPoint" />
          </mxGeometry>
        </mxCell>
        <mxCell id="3re6_Ih89YebMv_0j3Ld-46" value="" style="endArrow=classic;html=1;rounded=0;entryX=0;entryY=0;entryDx=0;entryDy=0;exitX=1;exitY=1;exitDx=0;exitDy=0;" edge="1" parent="1" source="3re6_Ih89YebMv_0j3Ld-35" target="3re6_Ih89YebMv_0j3Ld-37">
          <mxGeometry width="50" height="50" relative="1" as="geometry">
            <mxPoint x="413" y="375" as="sourcePoint" />
            <mxPoint x="463" y="325" as="targetPoint" />
          </mxGeometry>
        </mxCell>
        <mxCell id="3re6_Ih89YebMv_0j3Ld-47" value="" style="endArrow=classic;html=1;rounded=0;entryX=0;entryY=1;entryDx=0;entryDy=0;exitX=0.5;exitY=0;exitDx=0;exitDy=0;strokeColor=#3333FF;" edge="1" parent="1" source="3re6_Ih89YebMv_0j3Ld-36" target="3re6_Ih89YebMv_0j3Ld-37">
          <mxGeometry width="50" height="50" relative="1" as="geometry">
            <mxPoint x="413" y="375" as="sourcePoint" />
            <mxPoint x="463" y="325" as="targetPoint" />
          </mxGeometry>
        </mxCell>
        <mxCell id="3re6_Ih89YebMv_0j3Ld-48" value="" style="endArrow=classic;html=1;rounded=0;entryX=0;entryY=0.5;entryDx=0;entryDy=0;exitX=1;exitY=0.5;exitDx=0;exitDy=0;" edge="1" parent="1" source="3re6_Ih89YebMv_0j3Ld-34" target="3re6_Ih89YebMv_0j3Ld-41">
          <mxGeometry width="50" height="50" relative="1" as="geometry">
            <mxPoint x="375" y="383" as="sourcePoint" />
            <mxPoint x="425" y="333" as="targetPoint" />
          </mxGeometry>
        </mxCell>
        <mxCell id="3re6_Ih89YebMv_0j3Ld-49" value="" style="endArrow=classic;html=1;rounded=0;exitX=1;exitY=1;exitDx=0;exitDy=0;entryX=0;entryY=0;entryDx=0;entryDy=0;" edge="1" parent="1" source="3re6_Ih89YebMv_0j3Ld-32" target="3re6_Ih89YebMv_0j3Ld-34">
          <mxGeometry width="50" height="50" relative="1" as="geometry">
            <mxPoint x="375" y="383" as="sourcePoint" />
            <mxPoint x="425" y="333" as="targetPoint" />
          </mxGeometry>
        </mxCell>
        <mxCell id="3re6_Ih89YebMv_0j3Ld-50" value="" style="endArrow=classic;html=1;rounded=0;exitX=1;exitY=0;exitDx=0;exitDy=0;entryX=0;entryY=1;entryDx=0;entryDy=0;" edge="1" parent="1" source="3re6_Ih89YebMv_0j3Ld-34" target="3re6_Ih89YebMv_0j3Ld-35">
          <mxGeometry width="50" height="50" relative="1" as="geometry">
            <mxPoint x="375" y="383" as="sourcePoint" />
            <mxPoint x="425" y="333" as="targetPoint" />
          </mxGeometry>
        </mxCell>
        <mxCell id="3re6_Ih89YebMv_0j3Ld-51" value="" style="endArrow=classic;html=1;rounded=0;exitX=1;exitY=1;exitDx=0;exitDy=0;entryX=0.25;entryY=0;entryDx=0;entryDy=0;strokeColor=#3333FF;" edge="1" parent="1" source="3re6_Ih89YebMv_0j3Ld-33" target="3re6_Ih89YebMv_0j3Ld-41">
          <mxGeometry width="50" height="50" relative="1" as="geometry">
            <mxPoint x="375" y="383" as="sourcePoint" />
            <mxPoint x="425" y="333" as="targetPoint" />
          </mxGeometry>
        </mxCell>
        <mxCell id="3re6_Ih89YebMv_0j3Ld-52" value="&lt;p style=&quot;&quot;&gt;&lt;font style=&quot;font-size: 11px;&quot;&gt;3&lt;/font&gt;&lt;/p&gt;" style="text;html=1;strokeColor=none;fillColor=none;align=center;verticalAlign=middle;whiteSpace=wrap;rounded=0;fontSize=2;" vertex="1" parent="1">
          <mxGeometry x="334" y="311.5" width="15" height="14" as="geometry" />
        </mxCell>
        <mxCell id="3re6_Ih89YebMv_0j3Ld-53" value="6" style="text;html=1;strokeColor=none;fillColor=none;align=center;verticalAlign=middle;whiteSpace=wrap;rounded=0;fontSize=11;" vertex="1" parent="1">
          <mxGeometry x="334" y="371" width="12" height="10" as="geometry" />
        </mxCell>
        <mxCell id="3re6_Ih89YebMv_0j3Ld-54" value="4" style="text;html=1;strokeColor=none;fillColor=none;align=center;verticalAlign=middle;whiteSpace=wrap;rounded=0;fontSize=11;" vertex="1" parent="1">
          <mxGeometry x="404" y="289" width="11" height="13" as="geometry" />
        </mxCell>
        <mxCell id="3re6_Ih89YebMv_0j3Ld-55" value="3" style="text;html=1;strokeColor=none;fillColor=none;align=center;verticalAlign=middle;whiteSpace=wrap;rounded=0;fontSize=11;" vertex="1" parent="1">
          <mxGeometry x="408" y="405" width="11" height="12" as="geometry" />
        </mxCell>
        <mxCell id="3re6_Ih89YebMv_0j3Ld-56" value="2" style="text;html=1;strokeColor=none;fillColor=none;align=center;verticalAlign=middle;whiteSpace=wrap;rounded=0;fontSize=11;" vertex="1" parent="1">
          <mxGeometry x="386" y="363" width="11" height="12" as="geometry" />
        </mxCell>
        <mxCell id="3re6_Ih89YebMv_0j3Ld-57" value="2" style="text;html=1;strokeColor=none;fillColor=none;align=center;verticalAlign=middle;whiteSpace=wrap;rounded=0;fontSize=11;" vertex="1" parent="1">
          <mxGeometry x="386" y="331" width="9" height="5" as="geometry" />
        </mxCell>
        <mxCell id="3re6_Ih89YebMv_0j3Ld-58" value="5" style="text;html=1;strokeColor=none;fillColor=none;align=center;verticalAlign=middle;whiteSpace=wrap;rounded=0;fontSize=11;" vertex="1" parent="1">
          <mxGeometry x="478" y="314" width="10" height="8" as="geometry" />
        </mxCell>
        <mxCell id="3re6_Ih89YebMv_0j3Ld-59" value="5" style="text;html=1;strokeColor=none;fillColor=none;align=center;verticalAlign=middle;whiteSpace=wrap;rounded=0;fontSize=11;" vertex="1" parent="1">
          <mxGeometry x="478" y="375" width="7" height="13" as="geometry" />
        </mxCell>
        <mxCell id="3re6_Ih89YebMv_0j3Ld-60" value="network G and flow f" style="text;html=1;strokeColor=none;fillColor=none;align=center;verticalAlign=middle;whiteSpace=wrap;rounded=0;" vertex="1" parent="1">
          <mxGeometry x="115.5" y="432" width="118" height="21" as="geometry" />
        </mxCell>
        <mxCell id="3re6_Ih89YebMv_0j3Ld-61" value="residual network &lt;span style=&quot;font-size: 10px;&quot;&gt;G&lt;sub&gt;f&lt;/sub&gt;&lt;/span&gt;" style="text;html=1;strokeColor=none;fillColor=none;align=center;verticalAlign=middle;whiteSpace=wrap;rounded=0;" vertex="1" parent="1">
          <mxGeometry x="346" y="432" width="151" height="22" as="geometry" />
        </mxCell>
        <mxCell id="3re6_Ih89YebMv_0j3Ld-67" value="" style="curved=1;endArrow=classic;html=1;rounded=0;exitX=0;exitY=0;exitDx=0;exitDy=0;entryX=0;entryY=0;entryDx=0;entryDy=0;" edge="1" parent="1" source="3re6_Ih89YebMv_0j3Ld-33" target="3re6_Ih89YebMv_0j3Ld-42">
          <mxGeometry width="50" height="50" relative="1" as="geometry">
            <mxPoint x="367" y="284" as="sourcePoint" />
            <mxPoint x="298" y="276" as="targetPoint" />
            <Array as="points">
              <mxPoint x="347" y="287" />
              <mxPoint x="311" y="323" />
            </Array>
          </mxGeometry>
        </mxCell>
        <mxCell id="3re6_Ih89YebMv_0j3Ld-68" value="4" style="text;html=1;strokeColor=none;fillColor=none;align=center;verticalAlign=middle;whiteSpace=wrap;rounded=0;" vertex="1" parent="1">
          <mxGeometry x="317" y="289" width="15" height="13" as="geometry" />
        </mxCell>
        <mxCell id="3re6_Ih89YebMv_0j3Ld-69" value="" style="endArrow=classic;html=1;rounded=0;exitX=0;exitY=0.5;exitDx=0;exitDy=0;entryX=1;entryY=0.5;entryDx=0;entryDy=0;" edge="1" parent="1" source="3re6_Ih89YebMv_0j3Ld-40" target="3re6_Ih89YebMv_0j3Ld-33">
          <mxGeometry width="50" height="50" relative="1" as="geometry">
            <mxPoint x="283" y="349" as="sourcePoint" />
            <mxPoint x="333" y="299" as="targetPoint" />
          </mxGeometry>
        </mxCell>
        <mxCell id="3re6_Ih89YebMv_0j3Ld-70" value="" style="curved=1;endArrow=classic;html=1;rounded=0;exitX=1;exitY=0;exitDx=0;exitDy=0;entryX=1;entryY=0;entryDx=0;entryDy=0;" edge="1" parent="1" source="3re6_Ih89YebMv_0j3Ld-37" target="3re6_Ih89YebMv_0j3Ld-35">
          <mxGeometry width="50" height="50" relative="1" as="geometry">
            <mxPoint x="516" y="325.5" as="sourcePoint" />
            <mxPoint x="566" y="275.5" as="targetPoint" />
            <Array as="points">
              <mxPoint x="507" y="323" />
              <mxPoint x="487" y="297" />
            </Array>
          </mxGeometry>
        </mxCell>
        <mxCell id="3re6_Ih89YebMv_0j3Ld-71" value="4" style="text;html=1;strokeColor=none;fillColor=none;align=center;verticalAlign=middle;whiteSpace=wrap;rounded=0;" vertex="1" parent="1">
          <mxGeometry x="494" y="296.5" width="18" height="13" as="geometry" />
        </mxCell>
        <mxCell id="3re6_Ih89YebMv_0j3Ld-72" value="" style="ellipse;whiteSpace=wrap;html=1;aspect=fixed;" vertex="1" parent="1">
          <mxGeometry x="81" y="524.5" width="20" height="20" as="geometry" />
        </mxCell>
        <mxCell id="3re6_Ih89YebMv_0j3Ld-73" value="" style="ellipse;whiteSpace=wrap;html=1;aspect=fixed;" vertex="1" parent="1">
          <mxGeometry x="126" y="480" width="20" height="20" as="geometry" />
        </mxCell>
        <mxCell id="3re6_Ih89YebMv_0j3Ld-74" value="" style="ellipse;whiteSpace=wrap;html=1;aspect=fixed;" vertex="1" parent="1">
          <mxGeometry x="126" y="579" width="20" height="20" as="geometry" />
        </mxCell>
        <mxCell id="3re6_Ih89YebMv_0j3Ld-75" value="" style="ellipse;whiteSpace=wrap;html=1;aspect=fixed;" vertex="1" parent="1">
          <mxGeometry x="208" y="480" width="20" height="20" as="geometry" />
        </mxCell>
        <mxCell id="3re6_Ih89YebMv_0j3Ld-76" value="" style="ellipse;whiteSpace=wrap;html=1;aspect=fixed;" vertex="1" parent="1">
          <mxGeometry x="208" y="579" width="20" height="20" as="geometry" />
        </mxCell>
        <mxCell id="3re6_Ih89YebMv_0j3Ld-77" value="" style="ellipse;whiteSpace=wrap;html=1;aspect=fixed;" vertex="1" parent="1">
          <mxGeometry x="250" y="524.5" width="20" height="20" as="geometry" />
        </mxCell>
        <mxCell id="3re6_Ih89YebMv_0j3Ld-78" value="A" style="text;html=1;strokeColor=none;fillColor=none;align=center;verticalAlign=middle;whiteSpace=wrap;rounded=0;" vertex="1" parent="1">
          <mxGeometry x="130.5" y="485" width="11" height="10" as="geometry" />
        </mxCell>
        <mxCell id="3re6_Ih89YebMv_0j3Ld-79" value="B" style="text;html=1;strokeColor=none;fillColor=none;align=center;verticalAlign=middle;whiteSpace=wrap;rounded=0;" vertex="1" parent="1">
          <mxGeometry x="129" y="581.5" width="14" height="15" as="geometry" />
        </mxCell>
        <mxCell id="3re6_Ih89YebMv_0j3Ld-80" value="C" style="text;html=1;strokeColor=none;fillColor=none;align=center;verticalAlign=middle;whiteSpace=wrap;rounded=0;" vertex="1" parent="1">
          <mxGeometry x="208" y="482.5" width="20" height="15" as="geometry" />
        </mxCell>
        <mxCell id="3re6_Ih89YebMv_0j3Ld-81" value="D" style="text;html=1;strokeColor=none;fillColor=none;align=center;verticalAlign=middle;whiteSpace=wrap;rounded=0;" vertex="1" parent="1">
          <mxGeometry x="209" y="581.5" width="18" height="14" as="geometry" />
        </mxCell>
        <mxCell id="3re6_Ih89YebMv_0j3Ld-82" value="S" style="text;html=1;strokeColor=none;fillColor=none;align=center;verticalAlign=middle;whiteSpace=wrap;rounded=0;" vertex="1" parent="1">
          <mxGeometry x="82" y="528" width="18" height="13" as="geometry" />
        </mxCell>
        <mxCell id="3re6_Ih89YebMv_0j3Ld-83" value="T" style="text;html=1;strokeColor=none;fillColor=none;align=center;verticalAlign=middle;whiteSpace=wrap;rounded=0;" vertex="1" parent="1">
          <mxGeometry x="253.5" y="531" width="13" height="7.5" as="geometry" />
        </mxCell>
        <mxCell id="3re6_Ih89YebMv_0j3Ld-84" value="" style="endArrow=classic;html=1;rounded=0;entryX=0.037;entryY=0.768;entryDx=0;entryDy=0;entryPerimeter=0;" edge="1" parent="1" target="3re6_Ih89YebMv_0j3Ld-73">
          <mxGeometry width="50" height="50" relative="1" as="geometry">
            <mxPoint x="96" y="526" as="sourcePoint" />
            <mxPoint x="123" y="500" as="targetPoint" />
          </mxGeometry>
        </mxCell>
        <mxCell id="3re6_Ih89YebMv_0j3Ld-85" value="" style="endArrow=classic;html=1;rounded=0;entryX=0;entryY=0.5;entryDx=0;entryDy=0;" edge="1" parent="1" target="3re6_Ih89YebMv_0j3Ld-80">
          <mxGeometry width="50" height="50" relative="1" as="geometry">
            <mxPoint x="146" y="489.71000000000004" as="sourcePoint" />
            <mxPoint x="207" y="489" as="targetPoint" />
          </mxGeometry>
        </mxCell>
        <mxCell id="3re6_Ih89YebMv_0j3Ld-86" value="" style="endArrow=classic;html=1;rounded=0;entryX=0;entryY=0;entryDx=0;entryDy=0;exitX=1;exitY=1;exitDx=0;exitDy=0;" edge="1" parent="1" source="3re6_Ih89YebMv_0j3Ld-75" target="3re6_Ih89YebMv_0j3Ld-77">
          <mxGeometry width="50" height="50" relative="1" as="geometry">
            <mxPoint x="175" y="561" as="sourcePoint" />
            <mxPoint x="225" y="511" as="targetPoint" />
          </mxGeometry>
        </mxCell>
        <mxCell id="3re6_Ih89YebMv_0j3Ld-87" value="" style="endArrow=classic;html=1;rounded=0;entryX=0;entryY=1;entryDx=0;entryDy=0;exitX=0.5;exitY=0;exitDx=0;exitDy=0;" edge="1" parent="1" source="3re6_Ih89YebMv_0j3Ld-76" target="3re6_Ih89YebMv_0j3Ld-77">
          <mxGeometry width="50" height="50" relative="1" as="geometry">
            <mxPoint x="175" y="561" as="sourcePoint" />
            <mxPoint x="225" y="511" as="targetPoint" />
          </mxGeometry>
        </mxCell>
        <mxCell id="3re6_Ih89YebMv_0j3Ld-88" value="" style="endArrow=classic;html=1;rounded=0;entryX=0;entryY=0.5;entryDx=0;entryDy=0;exitX=1;exitY=0.5;exitDx=0;exitDy=0;" edge="1" parent="1" source="3re6_Ih89YebMv_0j3Ld-74" target="3re6_Ih89YebMv_0j3Ld-81">
          <mxGeometry width="50" height="50" relative="1" as="geometry">
            <mxPoint x="137" y="569" as="sourcePoint" />
            <mxPoint x="187" y="519" as="targetPoint" />
          </mxGeometry>
        </mxCell>
        <mxCell id="3re6_Ih89YebMv_0j3Ld-89" value="" style="endArrow=classic;html=1;rounded=0;exitX=1;exitY=1;exitDx=0;exitDy=0;entryX=0;entryY=0;entryDx=0;entryDy=0;" edge="1" parent="1" source="3re6_Ih89YebMv_0j3Ld-72" target="3re6_Ih89YebMv_0j3Ld-74">
          <mxGeometry width="50" height="50" relative="1" as="geometry">
            <mxPoint x="137" y="569" as="sourcePoint" />
            <mxPoint x="187" y="519" as="targetPoint" />
          </mxGeometry>
        </mxCell>
        <mxCell id="3re6_Ih89YebMv_0j3Ld-90" value="" style="endArrow=classic;html=1;rounded=0;exitX=1;exitY=0;exitDx=0;exitDy=0;entryX=0;entryY=1;entryDx=0;entryDy=0;" edge="1" parent="1" source="3re6_Ih89YebMv_0j3Ld-74" target="3re6_Ih89YebMv_0j3Ld-75">
          <mxGeometry width="50" height="50" relative="1" as="geometry">
            <mxPoint x="137" y="569" as="sourcePoint" />
            <mxPoint x="187" y="519" as="targetPoint" />
          </mxGeometry>
        </mxCell>
        <mxCell id="3re6_Ih89YebMv_0j3Ld-91" value="" style="endArrow=classic;html=1;rounded=0;exitX=1;exitY=1;exitDx=0;exitDy=0;entryX=0.25;entryY=0;entryDx=0;entryDy=0;" edge="1" parent="1" source="3re6_Ih89YebMv_0j3Ld-73" target="3re6_Ih89YebMv_0j3Ld-81">
          <mxGeometry width="50" height="50" relative="1" as="geometry">
            <mxPoint x="137" y="569" as="sourcePoint" />
            <mxPoint x="187" y="519" as="targetPoint" />
          </mxGeometry>
        </mxCell>
        <mxCell id="3re6_Ih89YebMv_0j3Ld-92" value="&lt;p style=&quot;&quot;&gt;&lt;font style=&quot;font-size: 11px;&quot;&gt;6/7&lt;/font&gt;&lt;/p&gt;" style="text;html=1;strokeColor=none;fillColor=none;align=center;verticalAlign=middle;whiteSpace=wrap;rounded=0;fontSize=2;" vertex="1" parent="1">
          <mxGeometry x="96" y="497.5" width="15" height="14" as="geometry" />
        </mxCell>
        <mxCell id="3re6_Ih89YebMv_0j3Ld-93" value="0/6" style="text;html=1;strokeColor=none;fillColor=none;align=center;verticalAlign=middle;whiteSpace=wrap;rounded=0;fontSize=11;" vertex="1" parent="1">
          <mxGeometry x="94" y="561" width="12" height="10" as="geometry" />
        </mxCell>
        <mxCell id="3re6_Ih89YebMv_0j3Ld-94" value="4/4" style="text;html=1;strokeColor=none;fillColor=none;align=center;verticalAlign=middle;whiteSpace=wrap;rounded=0;fontSize=11;" vertex="1" parent="1">
          <mxGeometry x="166" y="475" width="11" height="13" as="geometry" />
        </mxCell>
        <mxCell id="3re6_Ih89YebMv_0j3Ld-95" value="0/3" style="text;html=1;strokeColor=none;fillColor=none;align=center;verticalAlign=middle;whiteSpace=wrap;rounded=0;fontSize=11;" vertex="1" parent="1">
          <mxGeometry x="170" y="591" width="11" height="12" as="geometry" />
        </mxCell>
        <mxCell id="3re6_Ih89YebMv_0j3Ld-96" value="0/2" style="text;html=1;strokeColor=none;fillColor=none;align=center;verticalAlign=middle;whiteSpace=wrap;rounded=0;fontSize=11;" vertex="1" parent="1">
          <mxGeometry x="144" y="549" width="15" height="12" as="geometry" />
        </mxCell>
        <mxCell id="3re6_Ih89YebMv_0j3Ld-97" value="2/2" style="text;html=1;strokeColor=none;fillColor=none;align=center;verticalAlign=middle;whiteSpace=wrap;rounded=0;fontSize=11;" vertex="1" parent="1">
          <mxGeometry x="141" y="517" width="16" height="5" as="geometry" />
        </mxCell>
        <mxCell id="3re6_Ih89YebMv_0j3Ld-98" value="4/9" style="text;html=1;strokeColor=none;fillColor=none;align=center;verticalAlign=middle;whiteSpace=wrap;rounded=0;fontSize=11;" vertex="1" parent="1">
          <mxGeometry x="240" y="500" width="10" height="8" as="geometry" />
        </mxCell>
        <mxCell id="3re6_Ih89YebMv_0j3Ld-99" value="2/5" style="text;html=1;strokeColor=none;fillColor=none;align=center;verticalAlign=middle;whiteSpace=wrap;rounded=0;fontSize=11;" vertex="1" parent="1">
          <mxGeometry x="240" y="561" width="7" height="13" as="geometry" />
        </mxCell>
        <mxCell id="3re6_Ih89YebMv_0j3Ld-100" value="" style="ellipse;whiteSpace=wrap;html=1;aspect=fixed;" vertex="1" parent="1">
          <mxGeometry x="320" y="524.5" width="20" height="20" as="geometry" />
        </mxCell>
        <mxCell id="3re6_Ih89YebMv_0j3Ld-101" value="" style="ellipse;whiteSpace=wrap;html=1;aspect=fixed;" vertex="1" parent="1">
          <mxGeometry x="365" y="480" width="20" height="20" as="geometry" />
        </mxCell>
        <mxCell id="3re6_Ih89YebMv_0j3Ld-102" value="" style="ellipse;whiteSpace=wrap;html=1;aspect=fixed;" vertex="1" parent="1">
          <mxGeometry x="365" y="579" width="20" height="20" as="geometry" />
        </mxCell>
        <mxCell id="3re6_Ih89YebMv_0j3Ld-103" value="" style="ellipse;whiteSpace=wrap;html=1;aspect=fixed;" vertex="1" parent="1">
          <mxGeometry x="447" y="480" width="20" height="20" as="geometry" />
        </mxCell>
        <mxCell id="3re6_Ih89YebMv_0j3Ld-104" value="" style="ellipse;whiteSpace=wrap;html=1;aspect=fixed;" vertex="1" parent="1">
          <mxGeometry x="447" y="579" width="20" height="20" as="geometry" />
        </mxCell>
        <mxCell id="3re6_Ih89YebMv_0j3Ld-105" value="" style="ellipse;whiteSpace=wrap;html=1;aspect=fixed;" vertex="1" parent="1">
          <mxGeometry x="489" y="524.5" width="20" height="20" as="geometry" />
        </mxCell>
        <mxCell id="3re6_Ih89YebMv_0j3Ld-106" value="A" style="text;html=1;strokeColor=none;fillColor=none;align=center;verticalAlign=middle;whiteSpace=wrap;rounded=0;" vertex="1" parent="1">
          <mxGeometry x="369.5" y="485" width="11" height="10" as="geometry" />
        </mxCell>
        <mxCell id="3re6_Ih89YebMv_0j3Ld-107" value="B" style="text;html=1;strokeColor=none;fillColor=none;align=center;verticalAlign=middle;whiteSpace=wrap;rounded=0;" vertex="1" parent="1">
          <mxGeometry x="368" y="581.5" width="14" height="15" as="geometry" />
        </mxCell>
        <mxCell id="3re6_Ih89YebMv_0j3Ld-108" value="C" style="text;html=1;strokeColor=none;fillColor=none;align=center;verticalAlign=middle;whiteSpace=wrap;rounded=0;" vertex="1" parent="1">
          <mxGeometry x="447" y="482.5" width="20" height="15" as="geometry" />
        </mxCell>
        <mxCell id="3re6_Ih89YebMv_0j3Ld-109" value="D" style="text;html=1;strokeColor=none;fillColor=none;align=center;verticalAlign=middle;whiteSpace=wrap;rounded=0;" vertex="1" parent="1">
          <mxGeometry x="448" y="581.5" width="18" height="14" as="geometry" />
        </mxCell>
        <mxCell id="3re6_Ih89YebMv_0j3Ld-110" value="S" style="text;html=1;strokeColor=none;fillColor=none;align=center;verticalAlign=middle;whiteSpace=wrap;rounded=0;" vertex="1" parent="1">
          <mxGeometry x="321" y="528" width="18" height="13" as="geometry" />
        </mxCell>
        <mxCell id="3re6_Ih89YebMv_0j3Ld-111" value="T" style="text;html=1;strokeColor=none;fillColor=none;align=center;verticalAlign=middle;whiteSpace=wrap;rounded=0;" vertex="1" parent="1">
          <mxGeometry x="492.5" y="531" width="13" height="7.5" as="geometry" />
        </mxCell>
        <mxCell id="3re6_Ih89YebMv_0j3Ld-112" value="" style="endArrow=classic;html=1;rounded=0;entryX=0.037;entryY=0.768;entryDx=0;entryDy=0;entryPerimeter=0;" edge="1" parent="1" target="3re6_Ih89YebMv_0j3Ld-101">
          <mxGeometry width="50" height="50" relative="1" as="geometry">
            <mxPoint x="335" y="526" as="sourcePoint" />
            <mxPoint x="362" y="500" as="targetPoint" />
          </mxGeometry>
        </mxCell>
        <mxCell id="3re6_Ih89YebMv_0j3Ld-113" value="" style="endArrow=classic;html=1;rounded=0;entryX=0;entryY=0;entryDx=0;entryDy=0;exitX=1;exitY=1;exitDx=0;exitDy=0;" edge="1" parent="1" source="3re6_Ih89YebMv_0j3Ld-103" target="3re6_Ih89YebMv_0j3Ld-105">
          <mxGeometry width="50" height="50" relative="1" as="geometry">
            <mxPoint x="414" y="561" as="sourcePoint" />
            <mxPoint x="464" y="511" as="targetPoint" />
          </mxGeometry>
        </mxCell>
        <mxCell id="3re6_Ih89YebMv_0j3Ld-114" value="" style="endArrow=classic;html=1;rounded=0;entryX=0;entryY=1;entryDx=0;entryDy=0;exitX=0.5;exitY=0;exitDx=0;exitDy=0;strokeColor=#3333FF;" edge="1" parent="1" source="3re6_Ih89YebMv_0j3Ld-104" target="3re6_Ih89YebMv_0j3Ld-105">
          <mxGeometry width="50" height="50" relative="1" as="geometry">
            <mxPoint x="414" y="561" as="sourcePoint" />
            <mxPoint x="464" y="511" as="targetPoint" />
          </mxGeometry>
        </mxCell>
        <mxCell id="3re6_Ih89YebMv_0j3Ld-115" value="" style="endArrow=classic;html=1;rounded=0;entryX=0;entryY=0.5;entryDx=0;entryDy=0;exitX=1;exitY=0.5;exitDx=0;exitDy=0;strokeColor=#3333FF;" edge="1" parent="1" source="3re6_Ih89YebMv_0j3Ld-102" target="3re6_Ih89YebMv_0j3Ld-109">
          <mxGeometry width="50" height="50" relative="1" as="geometry">
            <mxPoint x="376" y="569" as="sourcePoint" />
            <mxPoint x="426" y="519" as="targetPoint" />
          </mxGeometry>
        </mxCell>
        <mxCell id="3re6_Ih89YebMv_0j3Ld-116" value="" style="endArrow=classic;html=1;rounded=0;exitX=1;exitY=1;exitDx=0;exitDy=0;entryX=0;entryY=0;entryDx=0;entryDy=0;strokeColor=#3333FF;" edge="1" parent="1" source="3re6_Ih89YebMv_0j3Ld-100" target="3re6_Ih89YebMv_0j3Ld-102">
          <mxGeometry width="50" height="50" relative="1" as="geometry">
            <mxPoint x="376" y="569" as="sourcePoint" />
            <mxPoint x="426" y="519" as="targetPoint" />
          </mxGeometry>
        </mxCell>
        <mxCell id="3re6_Ih89YebMv_0j3Ld-117" value="" style="endArrow=classic;html=1;rounded=0;exitX=1;exitY=0;exitDx=0;exitDy=0;entryX=0;entryY=1;entryDx=0;entryDy=0;" edge="1" parent="1" source="3re6_Ih89YebMv_0j3Ld-102" target="3re6_Ih89YebMv_0j3Ld-103">
          <mxGeometry width="50" height="50" relative="1" as="geometry">
            <mxPoint x="376" y="569" as="sourcePoint" />
            <mxPoint x="426" y="519" as="targetPoint" />
          </mxGeometry>
        </mxCell>
        <mxCell id="3re6_Ih89YebMv_0j3Ld-119" value="&lt;p style=&quot;&quot;&gt;&lt;font style=&quot;font-size: 11px;&quot;&gt;1&lt;/font&gt;&lt;/p&gt;" style="text;html=1;strokeColor=none;fillColor=none;align=center;verticalAlign=middle;whiteSpace=wrap;rounded=0;fontSize=2;" vertex="1" parent="1">
          <mxGeometry x="335" y="497.5" width="15" height="14" as="geometry" />
        </mxCell>
        <mxCell id="3re6_Ih89YebMv_0j3Ld-120" value="6" style="text;html=1;strokeColor=none;fillColor=none;align=center;verticalAlign=middle;whiteSpace=wrap;rounded=0;fontSize=11;" vertex="1" parent="1">
          <mxGeometry x="335" y="557" width="12" height="10" as="geometry" />
        </mxCell>
        <mxCell id="3re6_Ih89YebMv_0j3Ld-121" value="4" style="text;html=1;strokeColor=none;fillColor=none;align=center;verticalAlign=middle;whiteSpace=wrap;rounded=0;fontSize=11;" vertex="1" parent="1">
          <mxGeometry x="405" y="475" width="11" height="13" as="geometry" />
        </mxCell>
        <mxCell id="3re6_Ih89YebMv_0j3Ld-122" value="3" style="text;html=1;strokeColor=none;fillColor=none;align=center;verticalAlign=middle;whiteSpace=wrap;rounded=0;fontSize=11;" vertex="1" parent="1">
          <mxGeometry x="409" y="591" width="11" height="12" as="geometry" />
        </mxCell>
        <mxCell id="3re6_Ih89YebMv_0j3Ld-123" value="2" style="text;html=1;strokeColor=none;fillColor=none;align=center;verticalAlign=middle;whiteSpace=wrap;rounded=0;fontSize=11;" vertex="1" parent="1">
          <mxGeometry x="387" y="549" width="11" height="12" as="geometry" />
        </mxCell>
        <mxCell id="3re6_Ih89YebMv_0j3Ld-124" value="2" style="text;html=1;strokeColor=none;fillColor=none;align=center;verticalAlign=middle;whiteSpace=wrap;rounded=0;fontSize=11;" vertex="1" parent="1">
          <mxGeometry x="387" y="517" width="9" height="5" as="geometry" />
        </mxCell>
        <mxCell id="3re6_Ih89YebMv_0j3Ld-125" value="5" style="text;html=1;strokeColor=none;fillColor=none;align=center;verticalAlign=middle;whiteSpace=wrap;rounded=0;fontSize=11;" vertex="1" parent="1">
          <mxGeometry x="479" y="500" width="10" height="8" as="geometry" />
        </mxCell>
        <mxCell id="3re6_Ih89YebMv_0j3Ld-126" value="3" style="text;html=1;strokeColor=none;fillColor=none;align=center;verticalAlign=middle;whiteSpace=wrap;rounded=0;fontSize=11;" vertex="1" parent="1">
          <mxGeometry x="479" y="561" width="7" height="13" as="geometry" />
        </mxCell>
        <mxCell id="3re6_Ih89YebMv_0j3Ld-127" value="network G and flow f" style="text;html=1;strokeColor=none;fillColor=none;align=center;verticalAlign=middle;whiteSpace=wrap;rounded=0;" vertex="1" parent="1">
          <mxGeometry x="116.5" y="618" width="118" height="21" as="geometry" />
        </mxCell>
        <mxCell id="3re6_Ih89YebMv_0j3Ld-128" value="residual network &lt;span style=&quot;font-size: 10px;&quot;&gt;G&lt;sub&gt;f&lt;/sub&gt;&lt;/span&gt;" style="text;html=1;strokeColor=none;fillColor=none;align=center;verticalAlign=middle;whiteSpace=wrap;rounded=0;" vertex="1" parent="1">
          <mxGeometry x="347" y="618" width="151" height="22" as="geometry" />
        </mxCell>
        <mxCell id="3re6_Ih89YebMv_0j3Ld-129" value="" style="curved=1;endArrow=classic;html=1;rounded=0;exitX=0;exitY=0;exitDx=0;exitDy=0;entryX=0;entryY=0;entryDx=0;entryDy=0;" edge="1" parent="1" source="3re6_Ih89YebMv_0j3Ld-101" target="3re6_Ih89YebMv_0j3Ld-110">
          <mxGeometry width="50" height="50" relative="1" as="geometry">
            <mxPoint x="368" y="470" as="sourcePoint" />
            <mxPoint x="299" y="462" as="targetPoint" />
            <Array as="points">
              <mxPoint x="348" y="473" />
              <mxPoint x="312" y="509" />
            </Array>
          </mxGeometry>
        </mxCell>
        <mxCell id="3re6_Ih89YebMv_0j3Ld-130" value="6" style="text;html=1;strokeColor=none;fillColor=none;align=center;verticalAlign=middle;whiteSpace=wrap;rounded=0;" vertex="1" parent="1">
          <mxGeometry x="318" y="475" width="15" height="13" as="geometry" />
        </mxCell>
        <mxCell id="3re6_Ih89YebMv_0j3Ld-131" value="" style="endArrow=classic;html=1;rounded=0;exitX=0;exitY=0.5;exitDx=0;exitDy=0;entryX=1;entryY=0.5;entryDx=0;entryDy=0;" edge="1" parent="1" source="3re6_Ih89YebMv_0j3Ld-108" target="3re6_Ih89YebMv_0j3Ld-101">
          <mxGeometry width="50" height="50" relative="1" as="geometry">
            <mxPoint x="284" y="535" as="sourcePoint" />
            <mxPoint x="334" y="485" as="targetPoint" />
          </mxGeometry>
        </mxCell>
        <mxCell id="3re6_Ih89YebMv_0j3Ld-132" value="" style="curved=1;endArrow=classic;html=1;rounded=0;exitX=1;exitY=0;exitDx=0;exitDy=0;entryX=1;entryY=0;entryDx=0;entryDy=0;" edge="1" parent="1" source="3re6_Ih89YebMv_0j3Ld-105" target="3re6_Ih89YebMv_0j3Ld-103">
          <mxGeometry width="50" height="50" relative="1" as="geometry">
            <mxPoint x="517" y="511.5" as="sourcePoint" />
            <mxPoint x="567" y="461.5" as="targetPoint" />
            <Array as="points">
              <mxPoint x="508" y="509" />
              <mxPoint x="488" y="483" />
            </Array>
          </mxGeometry>
        </mxCell>
        <mxCell id="3re6_Ih89YebMv_0j3Ld-133" value="4" style="text;html=1;strokeColor=none;fillColor=none;align=center;verticalAlign=middle;whiteSpace=wrap;rounded=0;" vertex="1" parent="1">
          <mxGeometry x="495" y="482.5" width="18" height="13" as="geometry" />
        </mxCell>
        <mxCell id="3re6_Ih89YebMv_0j3Ld-134" value="" style="endArrow=classic;html=1;rounded=0;exitX=0;exitY=0;exitDx=0;exitDy=0;entryX=1;entryY=1;entryDx=0;entryDy=0;" edge="1" parent="1" source="3re6_Ih89YebMv_0j3Ld-104" target="3re6_Ih89YebMv_0j3Ld-101">
          <mxGeometry width="50" height="50" relative="1" as="geometry">
            <mxPoint x="283" y="601" as="sourcePoint" />
            <mxPoint x="333" y="551" as="targetPoint" />
          </mxGeometry>
        </mxCell>
        <mxCell id="3re6_Ih89YebMv_0j3Ld-135" value="" style="curved=1;endArrow=classic;html=1;rounded=0;exitX=1;exitY=1;exitDx=0;exitDy=0;entryX=1;entryY=1;entryDx=0;entryDy=0;" edge="1" parent="1" source="3re6_Ih89YebMv_0j3Ld-105" target="3re6_Ih89YebMv_0j3Ld-109">
          <mxGeometry width="50" height="50" relative="1" as="geometry">
            <mxPoint x="513" y="580" as="sourcePoint" />
            <mxPoint x="506" y="607" as="targetPoint" />
            <Array as="points">
              <mxPoint x="508" y="563" />
              <mxPoint x="489" y="585" />
            </Array>
          </mxGeometry>
        </mxCell>
        <mxCell id="3re6_Ih89YebMv_0j3Ld-136" value="2" style="text;html=1;strokeColor=none;fillColor=none;align=center;verticalAlign=middle;whiteSpace=wrap;rounded=0;" vertex="1" parent="1">
          <mxGeometry x="502" y="567" width="20" height="13" as="geometry" />
        </mxCell>
        <mxCell id="3re6_Ih89YebMv_0j3Ld-137" value="" style="ellipse;whiteSpace=wrap;html=1;aspect=fixed;" vertex="1" parent="1">
          <mxGeometry x="82" y="701.5" width="20" height="20" as="geometry" />
        </mxCell>
        <mxCell id="3re6_Ih89YebMv_0j3Ld-138" value="" style="ellipse;whiteSpace=wrap;html=1;aspect=fixed;" vertex="1" parent="1">
          <mxGeometry x="127" y="657" width="20" height="20" as="geometry" />
        </mxCell>
        <mxCell id="3re6_Ih89YebMv_0j3Ld-139" value="" style="ellipse;whiteSpace=wrap;html=1;aspect=fixed;" vertex="1" parent="1">
          <mxGeometry x="127" y="756" width="20" height="20" as="geometry" />
        </mxCell>
        <mxCell id="3re6_Ih89YebMv_0j3Ld-140" value="" style="ellipse;whiteSpace=wrap;html=1;aspect=fixed;" vertex="1" parent="1">
          <mxGeometry x="209" y="657" width="20" height="20" as="geometry" />
        </mxCell>
        <mxCell id="3re6_Ih89YebMv_0j3Ld-141" value="" style="ellipse;whiteSpace=wrap;html=1;aspect=fixed;" vertex="1" parent="1">
          <mxGeometry x="209" y="756" width="20" height="20" as="geometry" />
        </mxCell>
        <mxCell id="3re6_Ih89YebMv_0j3Ld-142" value="" style="ellipse;whiteSpace=wrap;html=1;aspect=fixed;" vertex="1" parent="1">
          <mxGeometry x="251" y="701.5" width="20" height="20" as="geometry" />
        </mxCell>
        <mxCell id="3re6_Ih89YebMv_0j3Ld-143" value="A" style="text;html=1;strokeColor=none;fillColor=none;align=center;verticalAlign=middle;whiteSpace=wrap;rounded=0;" vertex="1" parent="1">
          <mxGeometry x="131.5" y="662" width="11" height="10" as="geometry" />
        </mxCell>
        <mxCell id="3re6_Ih89YebMv_0j3Ld-144" value="B" style="text;html=1;strokeColor=none;fillColor=none;align=center;verticalAlign=middle;whiteSpace=wrap;rounded=0;" vertex="1" parent="1">
          <mxGeometry x="130" y="758.5" width="14" height="15" as="geometry" />
        </mxCell>
        <mxCell id="3re6_Ih89YebMv_0j3Ld-145" value="C" style="text;html=1;strokeColor=none;fillColor=none;align=center;verticalAlign=middle;whiteSpace=wrap;rounded=0;" vertex="1" parent="1">
          <mxGeometry x="209" y="659.5" width="20" height="15" as="geometry" />
        </mxCell>
        <mxCell id="3re6_Ih89YebMv_0j3Ld-146" value="D" style="text;html=1;strokeColor=none;fillColor=none;align=center;verticalAlign=middle;whiteSpace=wrap;rounded=0;" vertex="1" parent="1">
          <mxGeometry x="210" y="758.5" width="18" height="14" as="geometry" />
        </mxCell>
        <mxCell id="3re6_Ih89YebMv_0j3Ld-147" value="S" style="text;html=1;strokeColor=none;fillColor=none;align=center;verticalAlign=middle;whiteSpace=wrap;rounded=0;" vertex="1" parent="1">
          <mxGeometry x="83" y="705" width="18" height="13" as="geometry" />
        </mxCell>
        <mxCell id="3re6_Ih89YebMv_0j3Ld-148" value="T" style="text;html=1;strokeColor=none;fillColor=none;align=center;verticalAlign=middle;whiteSpace=wrap;rounded=0;" vertex="1" parent="1">
          <mxGeometry x="254.5" y="708" width="13" height="7.5" as="geometry" />
        </mxCell>
        <mxCell id="3re6_Ih89YebMv_0j3Ld-149" value="" style="endArrow=classic;html=1;rounded=0;entryX=0.037;entryY=0.768;entryDx=0;entryDy=0;entryPerimeter=0;" edge="1" parent="1" target="3re6_Ih89YebMv_0j3Ld-138">
          <mxGeometry width="50" height="50" relative="1" as="geometry">
            <mxPoint x="97" y="703" as="sourcePoint" />
            <mxPoint x="124" y="677" as="targetPoint" />
          </mxGeometry>
        </mxCell>
        <mxCell id="3re6_Ih89YebMv_0j3Ld-150" value="" style="endArrow=classic;html=1;rounded=0;entryX=0;entryY=0.5;entryDx=0;entryDy=0;" edge="1" parent="1" target="3re6_Ih89YebMv_0j3Ld-145">
          <mxGeometry width="50" height="50" relative="1" as="geometry">
            <mxPoint x="147" y="666.71" as="sourcePoint" />
            <mxPoint x="208" y="666" as="targetPoint" />
          </mxGeometry>
        </mxCell>
        <mxCell id="3re6_Ih89YebMv_0j3Ld-151" value="" style="endArrow=classic;html=1;rounded=0;entryX=0;entryY=0;entryDx=0;entryDy=0;exitX=1;exitY=1;exitDx=0;exitDy=0;" edge="1" parent="1" source="3re6_Ih89YebMv_0j3Ld-140" target="3re6_Ih89YebMv_0j3Ld-142">
          <mxGeometry width="50" height="50" relative="1" as="geometry">
            <mxPoint x="176" y="738" as="sourcePoint" />
            <mxPoint x="226" y="688" as="targetPoint" />
          </mxGeometry>
        </mxCell>
        <mxCell id="3re6_Ih89YebMv_0j3Ld-152" value="" style="endArrow=classic;html=1;rounded=0;entryX=0;entryY=1;entryDx=0;entryDy=0;exitX=0.5;exitY=0;exitDx=0;exitDy=0;" edge="1" parent="1" source="3re6_Ih89YebMv_0j3Ld-141" target="3re6_Ih89YebMv_0j3Ld-142">
          <mxGeometry width="50" height="50" relative="1" as="geometry">
            <mxPoint x="176" y="738" as="sourcePoint" />
            <mxPoint x="226" y="688" as="targetPoint" />
          </mxGeometry>
        </mxCell>
        <mxCell id="3re6_Ih89YebMv_0j3Ld-153" value="" style="endArrow=classic;html=1;rounded=0;entryX=0;entryY=0.5;entryDx=0;entryDy=0;exitX=1;exitY=0.5;exitDx=0;exitDy=0;" edge="1" parent="1" source="3re6_Ih89YebMv_0j3Ld-139" target="3re6_Ih89YebMv_0j3Ld-146">
          <mxGeometry width="50" height="50" relative="1" as="geometry">
            <mxPoint x="138" y="746" as="sourcePoint" />
            <mxPoint x="188" y="696" as="targetPoint" />
          </mxGeometry>
        </mxCell>
        <mxCell id="3re6_Ih89YebMv_0j3Ld-154" value="" style="endArrow=classic;html=1;rounded=0;exitX=1;exitY=1;exitDx=0;exitDy=0;entryX=0;entryY=0;entryDx=0;entryDy=0;" edge="1" parent="1" source="3re6_Ih89YebMv_0j3Ld-137" target="3re6_Ih89YebMv_0j3Ld-139">
          <mxGeometry width="50" height="50" relative="1" as="geometry">
            <mxPoint x="138" y="746" as="sourcePoint" />
            <mxPoint x="188" y="696" as="targetPoint" />
          </mxGeometry>
        </mxCell>
        <mxCell id="3re6_Ih89YebMv_0j3Ld-155" value="" style="endArrow=classic;html=1;rounded=0;exitX=1;exitY=0;exitDx=0;exitDy=0;entryX=0;entryY=1;entryDx=0;entryDy=0;" edge="1" parent="1" source="3re6_Ih89YebMv_0j3Ld-139" target="3re6_Ih89YebMv_0j3Ld-140">
          <mxGeometry width="50" height="50" relative="1" as="geometry">
            <mxPoint x="138" y="746" as="sourcePoint" />
            <mxPoint x="188" y="696" as="targetPoint" />
          </mxGeometry>
        </mxCell>
        <mxCell id="3re6_Ih89YebMv_0j3Ld-156" value="" style="endArrow=classic;html=1;rounded=0;exitX=1;exitY=1;exitDx=0;exitDy=0;entryX=0.25;entryY=0;entryDx=0;entryDy=0;" edge="1" parent="1" source="3re6_Ih89YebMv_0j3Ld-138" target="3re6_Ih89YebMv_0j3Ld-146">
          <mxGeometry width="50" height="50" relative="1" as="geometry">
            <mxPoint x="138" y="746" as="sourcePoint" />
            <mxPoint x="188" y="696" as="targetPoint" />
          </mxGeometry>
        </mxCell>
        <mxCell id="3re6_Ih89YebMv_0j3Ld-157" value="&lt;p style=&quot;&quot;&gt;&lt;font style=&quot;font-size: 11px;&quot;&gt;6/7&lt;/font&gt;&lt;/p&gt;" style="text;html=1;strokeColor=none;fillColor=none;align=center;verticalAlign=middle;whiteSpace=wrap;rounded=0;fontSize=2;" vertex="1" parent="1">
          <mxGeometry x="97" y="674.5" width="15" height="14" as="geometry" />
        </mxCell>
        <mxCell id="3re6_Ih89YebMv_0j3Ld-158" value="3/6" style="text;html=1;strokeColor=none;fillColor=none;align=center;verticalAlign=middle;whiteSpace=wrap;rounded=0;fontSize=11;" vertex="1" parent="1">
          <mxGeometry x="95" y="738" width="12" height="10" as="geometry" />
        </mxCell>
        <mxCell id="3re6_Ih89YebMv_0j3Ld-159" value="4/4" style="text;html=1;strokeColor=none;fillColor=none;align=center;verticalAlign=middle;whiteSpace=wrap;rounded=0;fontSize=11;" vertex="1" parent="1">
          <mxGeometry x="167" y="652" width="11" height="13" as="geometry" />
        </mxCell>
        <mxCell id="3re6_Ih89YebMv_0j3Ld-160" value="3/3" style="text;html=1;strokeColor=none;fillColor=none;align=center;verticalAlign=middle;whiteSpace=wrap;rounded=0;fontSize=11;" vertex="1" parent="1">
          <mxGeometry x="171" y="768" width="11" height="12" as="geometry" />
        </mxCell>
        <mxCell id="3re6_Ih89YebMv_0j3Ld-161" value="0/2" style="text;html=1;strokeColor=none;fillColor=none;align=center;verticalAlign=middle;whiteSpace=wrap;rounded=0;fontSize=11;" vertex="1" parent="1">
          <mxGeometry x="145" y="726" width="15" height="12" as="geometry" />
        </mxCell>
        <mxCell id="3re6_Ih89YebMv_0j3Ld-162" value="2/2" style="text;html=1;strokeColor=none;fillColor=none;align=center;verticalAlign=middle;whiteSpace=wrap;rounded=0;fontSize=11;" vertex="1" parent="1">
          <mxGeometry x="142" y="694" width="16" height="5" as="geometry" />
        </mxCell>
        <mxCell id="3re6_Ih89YebMv_0j3Ld-163" value="4/9" style="text;html=1;strokeColor=none;fillColor=none;align=center;verticalAlign=middle;whiteSpace=wrap;rounded=0;fontSize=11;" vertex="1" parent="1">
          <mxGeometry x="241" y="677" width="10" height="8" as="geometry" />
        </mxCell>
        <mxCell id="3re6_Ih89YebMv_0j3Ld-164" value="5/5" style="text;html=1;strokeColor=none;fillColor=none;align=center;verticalAlign=middle;whiteSpace=wrap;rounded=0;fontSize=11;" vertex="1" parent="1">
          <mxGeometry x="241" y="738" width="7" height="13" as="geometry" />
        </mxCell>
        <mxCell id="3re6_Ih89YebMv_0j3Ld-165" value="" style="ellipse;whiteSpace=wrap;html=1;aspect=fixed;" vertex="1" parent="1">
          <mxGeometry x="321" y="701.5" width="20" height="20" as="geometry" />
        </mxCell>
        <mxCell id="3re6_Ih89YebMv_0j3Ld-166" value="" style="ellipse;whiteSpace=wrap;html=1;aspect=fixed;" vertex="1" parent="1">
          <mxGeometry x="366" y="657" width="20" height="20" as="geometry" />
        </mxCell>
        <mxCell id="3re6_Ih89YebMv_0j3Ld-167" value="" style="ellipse;whiteSpace=wrap;html=1;aspect=fixed;" vertex="1" parent="1">
          <mxGeometry x="366" y="756" width="20" height="20" as="geometry" />
        </mxCell>
        <mxCell id="3re6_Ih89YebMv_0j3Ld-168" value="" style="ellipse;whiteSpace=wrap;html=1;aspect=fixed;" vertex="1" parent="1">
          <mxGeometry x="448" y="657" width="20" height="20" as="geometry" />
        </mxCell>
        <mxCell id="3re6_Ih89YebMv_0j3Ld-169" value="" style="ellipse;whiteSpace=wrap;html=1;aspect=fixed;" vertex="1" parent="1">
          <mxGeometry x="448" y="756" width="20" height="20" as="geometry" />
        </mxCell>
        <mxCell id="3re6_Ih89YebMv_0j3Ld-170" value="" style="ellipse;whiteSpace=wrap;html=1;aspect=fixed;" vertex="1" parent="1">
          <mxGeometry x="490" y="701.5" width="20" height="20" as="geometry" />
        </mxCell>
        <mxCell id="3re6_Ih89YebMv_0j3Ld-171" value="A" style="text;html=1;strokeColor=none;fillColor=none;align=center;verticalAlign=middle;whiteSpace=wrap;rounded=0;" vertex="1" parent="1">
          <mxGeometry x="370.5" y="662" width="11" height="10" as="geometry" />
        </mxCell>
        <mxCell id="3re6_Ih89YebMv_0j3Ld-172" value="B" style="text;html=1;strokeColor=none;fillColor=none;align=center;verticalAlign=middle;whiteSpace=wrap;rounded=0;" vertex="1" parent="1">
          <mxGeometry x="369" y="758.5" width="14" height="15" as="geometry" />
        </mxCell>
        <mxCell id="3re6_Ih89YebMv_0j3Ld-173" value="C" style="text;html=1;strokeColor=none;fillColor=none;align=center;verticalAlign=middle;whiteSpace=wrap;rounded=0;" vertex="1" parent="1">
          <mxGeometry x="448" y="659.5" width="20" height="15" as="geometry" />
        </mxCell>
        <mxCell id="3re6_Ih89YebMv_0j3Ld-174" value="D" style="text;html=1;strokeColor=none;fillColor=none;align=center;verticalAlign=middle;whiteSpace=wrap;rounded=0;" vertex="1" parent="1">
          <mxGeometry x="449" y="758.5" width="18" height="14" as="geometry" />
        </mxCell>
        <mxCell id="3re6_Ih89YebMv_0j3Ld-175" value="S" style="text;html=1;strokeColor=none;fillColor=none;align=center;verticalAlign=middle;whiteSpace=wrap;rounded=0;" vertex="1" parent="1">
          <mxGeometry x="322" y="705" width="18" height="13" as="geometry" />
        </mxCell>
        <mxCell id="3re6_Ih89YebMv_0j3Ld-176" value="T" style="text;html=1;strokeColor=none;fillColor=none;align=center;verticalAlign=middle;whiteSpace=wrap;rounded=0;" vertex="1" parent="1">
          <mxGeometry x="493.5" y="708" width="13" height="7.5" as="geometry" />
        </mxCell>
        <mxCell id="3re6_Ih89YebMv_0j3Ld-177" value="" style="endArrow=classic;html=1;rounded=0;entryX=0.037;entryY=0.768;entryDx=0;entryDy=0;entryPerimeter=0;" edge="1" parent="1" target="3re6_Ih89YebMv_0j3Ld-166">
          <mxGeometry width="50" height="50" relative="1" as="geometry">
            <mxPoint x="336" y="703" as="sourcePoint" />
            <mxPoint x="363" y="677" as="targetPoint" />
          </mxGeometry>
        </mxCell>
        <mxCell id="3re6_Ih89YebMv_0j3Ld-178" value="" style="endArrow=classic;html=1;rounded=0;entryX=0;entryY=0;entryDx=0;entryDy=0;exitX=1;exitY=1;exitDx=0;exitDy=0;strokeColor=#3333FF;" edge="1" parent="1" source="3re6_Ih89YebMv_0j3Ld-168" target="3re6_Ih89YebMv_0j3Ld-170">
          <mxGeometry width="50" height="50" relative="1" as="geometry">
            <mxPoint x="415" y="738" as="sourcePoint" />
            <mxPoint x="465" y="688" as="targetPoint" />
          </mxGeometry>
        </mxCell>
        <mxCell id="3re6_Ih89YebMv_0j3Ld-181" value="" style="endArrow=classic;html=1;rounded=0;exitX=1;exitY=1;exitDx=0;exitDy=0;entryX=0;entryY=0;entryDx=0;entryDy=0;strokeColor=#3333FF;" edge="1" parent="1" source="3re6_Ih89YebMv_0j3Ld-165" target="3re6_Ih89YebMv_0j3Ld-167">
          <mxGeometry width="50" height="50" relative="1" as="geometry">
            <mxPoint x="377" y="746" as="sourcePoint" />
            <mxPoint x="427" y="696" as="targetPoint" />
          </mxGeometry>
        </mxCell>
        <mxCell id="3re6_Ih89YebMv_0j3Ld-182" value="" style="endArrow=classic;html=1;rounded=0;exitX=1;exitY=0;exitDx=0;exitDy=0;entryX=0;entryY=1;entryDx=0;entryDy=0;strokeColor=#3333FF;" edge="1" parent="1" source="3re6_Ih89YebMv_0j3Ld-167" target="3re6_Ih89YebMv_0j3Ld-168">
          <mxGeometry width="50" height="50" relative="1" as="geometry">
            <mxPoint x="377" y="746" as="sourcePoint" />
            <mxPoint x="427" y="696" as="targetPoint" />
          </mxGeometry>
        </mxCell>
        <mxCell id="3re6_Ih89YebMv_0j3Ld-183" value="&lt;p style=&quot;&quot;&gt;&lt;font style=&quot;font-size: 11px;&quot;&gt;1&lt;/font&gt;&lt;/p&gt;" style="text;html=1;strokeColor=none;fillColor=none;align=center;verticalAlign=middle;whiteSpace=wrap;rounded=0;fontSize=2;" vertex="1" parent="1">
          <mxGeometry x="336" y="674.5" width="15" height="14" as="geometry" />
        </mxCell>
        <mxCell id="3re6_Ih89YebMv_0j3Ld-184" value="3" style="text;html=1;strokeColor=none;fillColor=none;align=center;verticalAlign=middle;whiteSpace=wrap;rounded=0;fontSize=11;" vertex="1" parent="1">
          <mxGeometry x="336" y="734" width="12" height="10" as="geometry" />
        </mxCell>
        <mxCell id="3re6_Ih89YebMv_0j3Ld-185" value="4" style="text;html=1;strokeColor=none;fillColor=none;align=center;verticalAlign=middle;whiteSpace=wrap;rounded=0;fontSize=11;" vertex="1" parent="1">
          <mxGeometry x="406" y="652" width="11" height="13" as="geometry" />
        </mxCell>
        <mxCell id="3re6_Ih89YebMv_0j3Ld-186" value="3" style="text;html=1;strokeColor=none;fillColor=none;align=center;verticalAlign=middle;whiteSpace=wrap;rounded=0;fontSize=11;" vertex="1" parent="1">
          <mxGeometry x="410" y="768" width="11" height="12" as="geometry" />
        </mxCell>
        <mxCell id="3re6_Ih89YebMv_0j3Ld-187" value="2" style="text;html=1;strokeColor=none;fillColor=none;align=center;verticalAlign=middle;whiteSpace=wrap;rounded=0;fontSize=11;" vertex="1" parent="1">
          <mxGeometry x="388" y="726" width="11" height="12" as="geometry" />
        </mxCell>
        <mxCell id="3re6_Ih89YebMv_0j3Ld-188" value="2" style="text;html=1;strokeColor=none;fillColor=none;align=center;verticalAlign=middle;whiteSpace=wrap;rounded=0;fontSize=11;" vertex="1" parent="1">
          <mxGeometry x="388" y="694" width="9" height="5" as="geometry" />
        </mxCell>
        <mxCell id="3re6_Ih89YebMv_0j3Ld-189" value="5" style="text;html=1;strokeColor=none;fillColor=none;align=center;verticalAlign=middle;whiteSpace=wrap;rounded=0;fontSize=11;" vertex="1" parent="1">
          <mxGeometry x="480" y="677" width="10" height="8" as="geometry" />
        </mxCell>
        <mxCell id="3re6_Ih89YebMv_0j3Ld-191" value="network G and flow f" style="text;html=1;strokeColor=none;fillColor=none;align=center;verticalAlign=middle;whiteSpace=wrap;rounded=0;" vertex="1" parent="1">
          <mxGeometry x="117.5" y="795" width="118" height="21" as="geometry" />
        </mxCell>
        <mxCell id="3re6_Ih89YebMv_0j3Ld-192" value="residual network &lt;span style=&quot;font-size: 10px;&quot;&gt;G&lt;sub&gt;f&lt;/sub&gt;&lt;/span&gt;" style="text;html=1;strokeColor=none;fillColor=none;align=center;verticalAlign=middle;whiteSpace=wrap;rounded=0;" vertex="1" parent="1">
          <mxGeometry x="348" y="795" width="151" height="22" as="geometry" />
        </mxCell>
        <mxCell id="3re6_Ih89YebMv_0j3Ld-193" value="" style="curved=1;endArrow=classic;html=1;rounded=0;exitX=0;exitY=0;exitDx=0;exitDy=0;entryX=0;entryY=0;entryDx=0;entryDy=0;" edge="1" parent="1" source="3re6_Ih89YebMv_0j3Ld-166" target="3re6_Ih89YebMv_0j3Ld-175">
          <mxGeometry width="50" height="50" relative="1" as="geometry">
            <mxPoint x="369" y="647" as="sourcePoint" />
            <mxPoint x="300" y="639" as="targetPoint" />
            <Array as="points">
              <mxPoint x="349" y="650" />
              <mxPoint x="313" y="686" />
            </Array>
          </mxGeometry>
        </mxCell>
        <mxCell id="3re6_Ih89YebMv_0j3Ld-194" value="6" style="text;html=1;strokeColor=none;fillColor=none;align=center;verticalAlign=middle;whiteSpace=wrap;rounded=0;" vertex="1" parent="1">
          <mxGeometry x="319" y="652" width="15" height="13" as="geometry" />
        </mxCell>
        <mxCell id="3re6_Ih89YebMv_0j3Ld-195" value="" style="endArrow=classic;html=1;rounded=0;exitX=0;exitY=0.5;exitDx=0;exitDy=0;entryX=1;entryY=0.5;entryDx=0;entryDy=0;" edge="1" parent="1" source="3re6_Ih89YebMv_0j3Ld-173" target="3re6_Ih89YebMv_0j3Ld-166">
          <mxGeometry width="50" height="50" relative="1" as="geometry">
            <mxPoint x="285" y="712" as="sourcePoint" />
            <mxPoint x="335" y="662" as="targetPoint" />
          </mxGeometry>
        </mxCell>
        <mxCell id="3re6_Ih89YebMv_0j3Ld-196" value="" style="curved=1;endArrow=classic;html=1;rounded=0;exitX=1;exitY=0;exitDx=0;exitDy=0;entryX=1;entryY=0;entryDx=0;entryDy=0;" edge="1" parent="1" source="3re6_Ih89YebMv_0j3Ld-170" target="3re6_Ih89YebMv_0j3Ld-168">
          <mxGeometry width="50" height="50" relative="1" as="geometry">
            <mxPoint x="518" y="688.5" as="sourcePoint" />
            <mxPoint x="568" y="638.5" as="targetPoint" />
            <Array as="points">
              <mxPoint x="509" y="686" />
              <mxPoint x="489" y="660" />
            </Array>
          </mxGeometry>
        </mxCell>
        <mxCell id="3re6_Ih89YebMv_0j3Ld-197" value="4" style="text;html=1;strokeColor=none;fillColor=none;align=center;verticalAlign=middle;whiteSpace=wrap;rounded=0;" vertex="1" parent="1">
          <mxGeometry x="496" y="659.5" width="18" height="13" as="geometry" />
        </mxCell>
        <mxCell id="3re6_Ih89YebMv_0j3Ld-198" value="" style="endArrow=classic;html=1;rounded=0;exitX=0;exitY=0;exitDx=0;exitDy=0;entryX=1;entryY=1;entryDx=0;entryDy=0;" edge="1" parent="1" source="3re6_Ih89YebMv_0j3Ld-169" target="3re6_Ih89YebMv_0j3Ld-166">
          <mxGeometry width="50" height="50" relative="1" as="geometry">
            <mxPoint x="284" y="778" as="sourcePoint" />
            <mxPoint x="334" y="728" as="targetPoint" />
          </mxGeometry>
        </mxCell>
        <mxCell id="3re6_Ih89YebMv_0j3Ld-199" value="" style="curved=1;endArrow=classic;html=1;rounded=0;exitX=1;exitY=1;exitDx=0;exitDy=0;entryX=1;entryY=0.5;entryDx=0;entryDy=0;" edge="1" parent="1" source="3re6_Ih89YebMv_0j3Ld-170" target="3re6_Ih89YebMv_0j3Ld-174">
          <mxGeometry width="50" height="50" relative="1" as="geometry">
            <mxPoint x="514" y="757" as="sourcePoint" />
            <mxPoint x="507" y="784" as="targetPoint" />
            <Array as="points">
              <mxPoint x="509" y="740" />
              <mxPoint x="490" y="762" />
            </Array>
          </mxGeometry>
        </mxCell>
        <mxCell id="3re6_Ih89YebMv_0j3Ld-200" value="5" style="text;html=1;strokeColor=none;fillColor=none;align=center;verticalAlign=middle;whiteSpace=wrap;rounded=0;" vertex="1" parent="1">
          <mxGeometry x="503" y="744" width="20" height="13" as="geometry" />
        </mxCell>
        <mxCell id="3re6_Ih89YebMv_0j3Ld-201" value="" style="curved=1;endArrow=classic;html=1;rounded=0;exitX=0;exitY=0.5;exitDx=0;exitDy=0;entryX=0;entryY=1;entryDx=0;entryDy=0;" edge="1" parent="1" source="3re6_Ih89YebMv_0j3Ld-167" target="3re6_Ih89YebMv_0j3Ld-165">
          <mxGeometry width="50" height="50" relative="1" as="geometry">
            <mxPoint x="314.5" y="822" as="sourcePoint" />
            <mxPoint x="304.5" y="744" as="targetPoint" />
            <Array as="points">
              <mxPoint x="337" y="763" />
              <mxPoint x="321" y="740" />
            </Array>
          </mxGeometry>
        </mxCell>
        <mxCell id="3re6_Ih89YebMv_0j3Ld-202" value="3" style="text;html=1;strokeColor=none;fillColor=none;align=center;verticalAlign=middle;whiteSpace=wrap;rounded=0;" vertex="1" parent="1">
          <mxGeometry x="309" y="751" width="19" height="13" as="geometry" />
        </mxCell>
        <mxCell id="3re6_Ih89YebMv_0j3Ld-203" value="" style="endArrow=classic;html=1;rounded=0;entryX=1;entryY=0.5;entryDx=0;entryDy=0;exitX=0;exitY=0.5;exitDx=0;exitDy=0;" edge="1" parent="1" source="3re6_Ih89YebMv_0j3Ld-174" target="3re6_Ih89YebMv_0j3Ld-167">
          <mxGeometry width="50" height="50" relative="1" as="geometry">
            <mxPoint x="268" y="830" as="sourcePoint" />
            <mxPoint x="318" y="780" as="targetPoint" />
          </mxGeometry>
        </mxCell>
        <mxCell id="3re6_Ih89YebMv_0j3Ld-204" value="" style="ellipse;whiteSpace=wrap;html=1;aspect=fixed;" vertex="1" parent="1">
          <mxGeometry x="83" y="898.5" width="20" height="20" as="geometry" />
        </mxCell>
        <mxCell id="3re6_Ih89YebMv_0j3Ld-205" value="" style="ellipse;whiteSpace=wrap;html=1;aspect=fixed;" vertex="1" parent="1">
          <mxGeometry x="128" y="854" width="20" height="20" as="geometry" />
        </mxCell>
        <mxCell id="3re6_Ih89YebMv_0j3Ld-206" value="" style="ellipse;whiteSpace=wrap;html=1;aspect=fixed;" vertex="1" parent="1">
          <mxGeometry x="128" y="953" width="20" height="20" as="geometry" />
        </mxCell>
        <mxCell id="3re6_Ih89YebMv_0j3Ld-207" value="" style="ellipse;whiteSpace=wrap;html=1;aspect=fixed;" vertex="1" parent="1">
          <mxGeometry x="210" y="854" width="20" height="20" as="geometry" />
        </mxCell>
        <mxCell id="3re6_Ih89YebMv_0j3Ld-208" value="" style="ellipse;whiteSpace=wrap;html=1;aspect=fixed;" vertex="1" parent="1">
          <mxGeometry x="210" y="953" width="20" height="20" as="geometry" />
        </mxCell>
        <mxCell id="3re6_Ih89YebMv_0j3Ld-209" value="" style="ellipse;whiteSpace=wrap;html=1;aspect=fixed;" vertex="1" parent="1">
          <mxGeometry x="252" y="898.5" width="20" height="20" as="geometry" />
        </mxCell>
        <mxCell id="3re6_Ih89YebMv_0j3Ld-210" value="A" style="text;html=1;strokeColor=none;fillColor=none;align=center;verticalAlign=middle;whiteSpace=wrap;rounded=0;" vertex="1" parent="1">
          <mxGeometry x="132.5" y="859" width="11" height="10" as="geometry" />
        </mxCell>
        <mxCell id="3re6_Ih89YebMv_0j3Ld-211" value="B" style="text;html=1;strokeColor=none;fillColor=none;align=center;verticalAlign=middle;whiteSpace=wrap;rounded=0;" vertex="1" parent="1">
          <mxGeometry x="131" y="955.5" width="14" height="15" as="geometry" />
        </mxCell>
        <mxCell id="3re6_Ih89YebMv_0j3Ld-212" value="C" style="text;html=1;strokeColor=none;fillColor=none;align=center;verticalAlign=middle;whiteSpace=wrap;rounded=0;" vertex="1" parent="1">
          <mxGeometry x="210" y="856.5" width="20" height="15" as="geometry" />
        </mxCell>
        <mxCell id="3re6_Ih89YebMv_0j3Ld-213" value="D" style="text;html=1;strokeColor=none;fillColor=none;align=center;verticalAlign=middle;whiteSpace=wrap;rounded=0;" vertex="1" parent="1">
          <mxGeometry x="211" y="955.5" width="18" height="14" as="geometry" />
        </mxCell>
        <mxCell id="3re6_Ih89YebMv_0j3Ld-214" value="S" style="text;html=1;strokeColor=none;fillColor=none;align=center;verticalAlign=middle;whiteSpace=wrap;rounded=0;" vertex="1" parent="1">
          <mxGeometry x="84" y="902" width="18" height="13" as="geometry" />
        </mxCell>
        <mxCell id="3re6_Ih89YebMv_0j3Ld-215" value="T" style="text;html=1;strokeColor=none;fillColor=none;align=center;verticalAlign=middle;whiteSpace=wrap;rounded=0;" vertex="1" parent="1">
          <mxGeometry x="255.5" y="905" width="13" height="7.5" as="geometry" />
        </mxCell>
        <mxCell id="3re6_Ih89YebMv_0j3Ld-216" value="" style="endArrow=classic;html=1;rounded=0;entryX=0.037;entryY=0.768;entryDx=0;entryDy=0;entryPerimeter=0;" edge="1" parent="1" target="3re6_Ih89YebMv_0j3Ld-205">
          <mxGeometry width="50" height="50" relative="1" as="geometry">
            <mxPoint x="98" y="900" as="sourcePoint" />
            <mxPoint x="125" y="874" as="targetPoint" />
          </mxGeometry>
        </mxCell>
        <mxCell id="3re6_Ih89YebMv_0j3Ld-217" value="" style="endArrow=classic;html=1;rounded=0;entryX=0;entryY=0.5;entryDx=0;entryDy=0;" edge="1" parent="1" target="3re6_Ih89YebMv_0j3Ld-212">
          <mxGeometry width="50" height="50" relative="1" as="geometry">
            <mxPoint x="148" y="863.7100000000002" as="sourcePoint" />
            <mxPoint x="209" y="863" as="targetPoint" />
          </mxGeometry>
        </mxCell>
        <mxCell id="3re6_Ih89YebMv_0j3Ld-218" value="" style="endArrow=classic;html=1;rounded=0;entryX=0;entryY=0;entryDx=0;entryDy=0;exitX=1;exitY=1;exitDx=0;exitDy=0;" edge="1" parent="1" source="3re6_Ih89YebMv_0j3Ld-207" target="3re6_Ih89YebMv_0j3Ld-209">
          <mxGeometry width="50" height="50" relative="1" as="geometry">
            <mxPoint x="177" y="935" as="sourcePoint" />
            <mxPoint x="227" y="885" as="targetPoint" />
          </mxGeometry>
        </mxCell>
        <mxCell id="3re6_Ih89YebMv_0j3Ld-219" value="" style="endArrow=classic;html=1;rounded=0;entryX=0;entryY=1;entryDx=0;entryDy=0;exitX=0.5;exitY=0;exitDx=0;exitDy=0;" edge="1" parent="1" source="3re6_Ih89YebMv_0j3Ld-208" target="3re6_Ih89YebMv_0j3Ld-209">
          <mxGeometry width="50" height="50" relative="1" as="geometry">
            <mxPoint x="177" y="935" as="sourcePoint" />
            <mxPoint x="227" y="885" as="targetPoint" />
          </mxGeometry>
        </mxCell>
        <mxCell id="3re6_Ih89YebMv_0j3Ld-220" value="" style="endArrow=classic;html=1;rounded=0;entryX=0;entryY=0.5;entryDx=0;entryDy=0;exitX=1;exitY=0.5;exitDx=0;exitDy=0;" edge="1" parent="1" source="3re6_Ih89YebMv_0j3Ld-206" target="3re6_Ih89YebMv_0j3Ld-213">
          <mxGeometry width="50" height="50" relative="1" as="geometry">
            <mxPoint x="139" y="943" as="sourcePoint" />
            <mxPoint x="189" y="893" as="targetPoint" />
          </mxGeometry>
        </mxCell>
        <mxCell id="3re6_Ih89YebMv_0j3Ld-221" value="" style="endArrow=classic;html=1;rounded=0;exitX=1;exitY=1;exitDx=0;exitDy=0;entryX=0;entryY=0;entryDx=0;entryDy=0;" edge="1" parent="1" source="3re6_Ih89YebMv_0j3Ld-204" target="3re6_Ih89YebMv_0j3Ld-206">
          <mxGeometry width="50" height="50" relative="1" as="geometry">
            <mxPoint x="139" y="943" as="sourcePoint" />
            <mxPoint x="189" y="893" as="targetPoint" />
          </mxGeometry>
        </mxCell>
        <mxCell id="3re6_Ih89YebMv_0j3Ld-222" value="" style="endArrow=classic;html=1;rounded=0;exitX=1;exitY=0;exitDx=0;exitDy=0;entryX=0;entryY=1;entryDx=0;entryDy=0;" edge="1" parent="1" source="3re6_Ih89YebMv_0j3Ld-206" target="3re6_Ih89YebMv_0j3Ld-207">
          <mxGeometry width="50" height="50" relative="1" as="geometry">
            <mxPoint x="139" y="943" as="sourcePoint" />
            <mxPoint x="189" y="893" as="targetPoint" />
          </mxGeometry>
        </mxCell>
        <mxCell id="3re6_Ih89YebMv_0j3Ld-223" value="" style="endArrow=classic;html=1;rounded=0;exitX=1;exitY=1;exitDx=0;exitDy=0;entryX=0.25;entryY=0;entryDx=0;entryDy=0;" edge="1" parent="1" source="3re6_Ih89YebMv_0j3Ld-205" target="3re6_Ih89YebMv_0j3Ld-213">
          <mxGeometry width="50" height="50" relative="1" as="geometry">
            <mxPoint x="139" y="943" as="sourcePoint" />
            <mxPoint x="189" y="893" as="targetPoint" />
          </mxGeometry>
        </mxCell>
        <mxCell id="3re6_Ih89YebMv_0j3Ld-224" value="&lt;p style=&quot;&quot;&gt;&lt;font style=&quot;font-size: 11px;&quot;&gt;6/7&lt;/font&gt;&lt;/p&gt;" style="text;html=1;strokeColor=none;fillColor=none;align=center;verticalAlign=middle;whiteSpace=wrap;rounded=0;fontSize=2;" vertex="1" parent="1">
          <mxGeometry x="98" y="871.5" width="15" height="14" as="geometry" />
        </mxCell>
        <mxCell id="3re6_Ih89YebMv_0j3Ld-225" value="5/6" style="text;html=1;strokeColor=none;fillColor=none;align=center;verticalAlign=middle;whiteSpace=wrap;rounded=0;fontSize=11;" vertex="1" parent="1">
          <mxGeometry x="96" y="935" width="12" height="10" as="geometry" />
        </mxCell>
        <mxCell id="3re6_Ih89YebMv_0j3Ld-226" value="4/4" style="text;html=1;strokeColor=none;fillColor=none;align=center;verticalAlign=middle;whiteSpace=wrap;rounded=0;fontSize=11;" vertex="1" parent="1">
          <mxGeometry x="168" y="849" width="11" height="13" as="geometry" />
        </mxCell>
        <mxCell id="3re6_Ih89YebMv_0j3Ld-227" value="3/3" style="text;html=1;strokeColor=none;fillColor=none;align=center;verticalAlign=middle;whiteSpace=wrap;rounded=0;fontSize=11;" vertex="1" parent="1">
          <mxGeometry x="172" y="965" width="11" height="12" as="geometry" />
        </mxCell>
        <mxCell id="3re6_Ih89YebMv_0j3Ld-228" value="2/2" style="text;html=1;strokeColor=none;fillColor=none;align=center;verticalAlign=middle;whiteSpace=wrap;rounded=0;fontSize=11;" vertex="1" parent="1">
          <mxGeometry x="146" y="923" width="15" height="12" as="geometry" />
        </mxCell>
        <mxCell id="3re6_Ih89YebMv_0j3Ld-229" value="2/2" style="text;html=1;strokeColor=none;fillColor=none;align=center;verticalAlign=middle;whiteSpace=wrap;rounded=0;fontSize=11;" vertex="1" parent="1">
          <mxGeometry x="143" y="891" width="16" height="5" as="geometry" />
        </mxCell>
        <mxCell id="3re6_Ih89YebMv_0j3Ld-230" value="6/9" style="text;html=1;strokeColor=none;fillColor=none;align=center;verticalAlign=middle;whiteSpace=wrap;rounded=0;fontSize=11;" vertex="1" parent="1">
          <mxGeometry x="242" y="874" width="10" height="8" as="geometry" />
        </mxCell>
        <mxCell id="3re6_Ih89YebMv_0j3Ld-231" value="5/5" style="text;html=1;strokeColor=none;fillColor=none;align=center;verticalAlign=middle;whiteSpace=wrap;rounded=0;fontSize=11;" vertex="1" parent="1">
          <mxGeometry x="242" y="935" width="7" height="13" as="geometry" />
        </mxCell>
        <mxCell id="3re6_Ih89YebMv_0j3Ld-232" value="" style="ellipse;whiteSpace=wrap;html=1;aspect=fixed;" vertex="1" parent="1">
          <mxGeometry x="322" y="898.5" width="20" height="20" as="geometry" />
        </mxCell>
        <mxCell id="3re6_Ih89YebMv_0j3Ld-233" value="" style="ellipse;whiteSpace=wrap;html=1;aspect=fixed;" vertex="1" parent="1">
          <mxGeometry x="367" y="854" width="20" height="20" as="geometry" />
        </mxCell>
        <mxCell id="3re6_Ih89YebMv_0j3Ld-234" value="" style="ellipse;whiteSpace=wrap;html=1;aspect=fixed;" vertex="1" parent="1">
          <mxGeometry x="367" y="953" width="20" height="20" as="geometry" />
        </mxCell>
        <mxCell id="3re6_Ih89YebMv_0j3Ld-235" value="" style="ellipse;whiteSpace=wrap;html=1;aspect=fixed;" vertex="1" parent="1">
          <mxGeometry x="449" y="854" width="20" height="20" as="geometry" />
        </mxCell>
        <mxCell id="3re6_Ih89YebMv_0j3Ld-236" value="" style="ellipse;whiteSpace=wrap;html=1;aspect=fixed;" vertex="1" parent="1">
          <mxGeometry x="449" y="953" width="20" height="20" as="geometry" />
        </mxCell>
        <mxCell id="3re6_Ih89YebMv_0j3Ld-237" value="" style="ellipse;whiteSpace=wrap;html=1;aspect=fixed;" vertex="1" parent="1">
          <mxGeometry x="491" y="898.5" width="20" height="20" as="geometry" />
        </mxCell>
        <mxCell id="3re6_Ih89YebMv_0j3Ld-238" value="A" style="text;html=1;strokeColor=none;fillColor=none;align=center;verticalAlign=middle;whiteSpace=wrap;rounded=0;" vertex="1" parent="1">
          <mxGeometry x="371.5" y="859" width="11" height="10" as="geometry" />
        </mxCell>
        <mxCell id="3re6_Ih89YebMv_0j3Ld-239" value="B" style="text;html=1;strokeColor=none;fillColor=none;align=center;verticalAlign=middle;whiteSpace=wrap;rounded=0;" vertex="1" parent="1">
          <mxGeometry x="370" y="955.5" width="14" height="15" as="geometry" />
        </mxCell>
        <mxCell id="3re6_Ih89YebMv_0j3Ld-240" value="C" style="text;html=1;strokeColor=none;fillColor=none;align=center;verticalAlign=middle;whiteSpace=wrap;rounded=0;" vertex="1" parent="1">
          <mxGeometry x="449" y="856.5" width="20" height="15" as="geometry" />
        </mxCell>
        <mxCell id="3re6_Ih89YebMv_0j3Ld-241" value="D" style="text;html=1;strokeColor=none;fillColor=none;align=center;verticalAlign=middle;whiteSpace=wrap;rounded=0;" vertex="1" parent="1">
          <mxGeometry x="450" y="955.5" width="18" height="14" as="geometry" />
        </mxCell>
        <mxCell id="3re6_Ih89YebMv_0j3Ld-242" value="S" style="text;html=1;strokeColor=none;fillColor=none;align=center;verticalAlign=middle;whiteSpace=wrap;rounded=0;" vertex="1" parent="1">
          <mxGeometry x="323" y="902" width="18" height="13" as="geometry" />
        </mxCell>
        <mxCell id="3re6_Ih89YebMv_0j3Ld-243" value="T" style="text;html=1;strokeColor=none;fillColor=none;align=center;verticalAlign=middle;whiteSpace=wrap;rounded=0;" vertex="1" parent="1">
          <mxGeometry x="494.5" y="905" width="13" height="7.5" as="geometry" />
        </mxCell>
        <mxCell id="3re6_Ih89YebMv_0j3Ld-244" value="" style="endArrow=classic;html=1;rounded=0;entryX=0.037;entryY=0.768;entryDx=0;entryDy=0;entryPerimeter=0;" edge="1" parent="1" target="3re6_Ih89YebMv_0j3Ld-233">
          <mxGeometry width="50" height="50" relative="1" as="geometry">
            <mxPoint x="337" y="900" as="sourcePoint" />
            <mxPoint x="364" y="874" as="targetPoint" />
          </mxGeometry>
        </mxCell>
        <mxCell id="3re6_Ih89YebMv_0j3Ld-245" value="" style="endArrow=classic;html=1;rounded=0;entryX=0;entryY=0;entryDx=0;entryDy=0;exitX=1;exitY=1;exitDx=0;exitDy=0;" edge="1" parent="1" source="3re6_Ih89YebMv_0j3Ld-235" target="3re6_Ih89YebMv_0j3Ld-237">
          <mxGeometry width="50" height="50" relative="1" as="geometry">
            <mxPoint x="416" y="935" as="sourcePoint" />
            <mxPoint x="466" y="885" as="targetPoint" />
          </mxGeometry>
        </mxCell>
        <mxCell id="3re6_Ih89YebMv_0j3Ld-246" value="" style="endArrow=classic;html=1;rounded=0;exitX=1;exitY=1;exitDx=0;exitDy=0;entryX=0;entryY=0;entryDx=0;entryDy=0;" edge="1" parent="1" source="3re6_Ih89YebMv_0j3Ld-232" target="3re6_Ih89YebMv_0j3Ld-234">
          <mxGeometry width="50" height="50" relative="1" as="geometry">
            <mxPoint x="378" y="943" as="sourcePoint" />
            <mxPoint x="428" y="893" as="targetPoint" />
          </mxGeometry>
        </mxCell>
        <mxCell id="3re6_Ih89YebMv_0j3Ld-247" value="" style="endArrow=classic;html=1;rounded=0;exitX=0.25;exitY=1;exitDx=0;exitDy=0;entryX=0.75;entryY=0;entryDx=0;entryDy=0;" edge="1" parent="1" source="3re6_Ih89YebMv_0j3Ld-240" target="3re6_Ih89YebMv_0j3Ld-239">
          <mxGeometry width="50" height="50" relative="1" as="geometry">
            <mxPoint x="378" y="943" as="sourcePoint" />
            <mxPoint x="464" y="912" as="targetPoint" />
          </mxGeometry>
        </mxCell>
        <mxCell id="3re6_Ih89YebMv_0j3Ld-248" value="&lt;p style=&quot;&quot;&gt;&lt;font style=&quot;font-size: 11px;&quot;&gt;1&lt;/font&gt;&lt;/p&gt;" style="text;html=1;strokeColor=none;fillColor=none;align=center;verticalAlign=middle;whiteSpace=wrap;rounded=0;fontSize=2;" vertex="1" parent="1">
          <mxGeometry x="337" y="871.5" width="15" height="14" as="geometry" />
        </mxCell>
        <mxCell id="3re6_Ih89YebMv_0j3Ld-249" value="1" style="text;html=1;strokeColor=none;fillColor=none;align=center;verticalAlign=middle;whiteSpace=wrap;rounded=0;fontSize=11;" vertex="1" parent="1">
          <mxGeometry x="337" y="931" width="12" height="10" as="geometry" />
        </mxCell>
        <mxCell id="3re6_Ih89YebMv_0j3Ld-250" value="4" style="text;html=1;strokeColor=none;fillColor=none;align=center;verticalAlign=middle;whiteSpace=wrap;rounded=0;fontSize=11;" vertex="1" parent="1">
          <mxGeometry x="407" y="849" width="11" height="13" as="geometry" />
        </mxCell>
        <mxCell id="3re6_Ih89YebMv_0j3Ld-251" value="3" style="text;html=1;strokeColor=none;fillColor=none;align=center;verticalAlign=middle;whiteSpace=wrap;rounded=0;fontSize=11;" vertex="1" parent="1">
          <mxGeometry x="411" y="965" width="11" height="12" as="geometry" />
        </mxCell>
        <mxCell id="3re6_Ih89YebMv_0j3Ld-252" value="2" style="text;html=1;strokeColor=none;fillColor=none;align=center;verticalAlign=middle;whiteSpace=wrap;rounded=0;fontSize=11;" vertex="1" parent="1">
          <mxGeometry x="389" y="923" width="11" height="12" as="geometry" />
        </mxCell>
        <mxCell id="3re6_Ih89YebMv_0j3Ld-253" value="2" style="text;html=1;strokeColor=none;fillColor=none;align=center;verticalAlign=middle;whiteSpace=wrap;rounded=0;fontSize=11;" vertex="1" parent="1">
          <mxGeometry x="389" y="891" width="9" height="5" as="geometry" />
        </mxCell>
        <mxCell id="3re6_Ih89YebMv_0j3Ld-254" value="3" style="text;html=1;strokeColor=none;fillColor=none;align=center;verticalAlign=middle;whiteSpace=wrap;rounded=0;fontSize=11;" vertex="1" parent="1">
          <mxGeometry x="481" y="874" width="10" height="8" as="geometry" />
        </mxCell>
        <mxCell id="3re6_Ih89YebMv_0j3Ld-255" value="network G and flow f" style="text;html=1;strokeColor=none;fillColor=none;align=center;verticalAlign=middle;whiteSpace=wrap;rounded=0;" vertex="1" parent="1">
          <mxGeometry x="118.5" y="992" width="118" height="21" as="geometry" />
        </mxCell>
        <mxCell id="3re6_Ih89YebMv_0j3Ld-256" value="residual network &lt;span style=&quot;font-size: 10px;&quot;&gt;G&lt;sub&gt;f&lt;/sub&gt;&lt;/span&gt;" style="text;html=1;strokeColor=none;fillColor=none;align=center;verticalAlign=middle;whiteSpace=wrap;rounded=0;" vertex="1" parent="1">
          <mxGeometry x="349" y="992" width="151" height="22" as="geometry" />
        </mxCell>
        <mxCell id="3re6_Ih89YebMv_0j3Ld-257" value="" style="curved=1;endArrow=classic;html=1;rounded=0;exitX=0;exitY=0;exitDx=0;exitDy=0;entryX=0;entryY=0;entryDx=0;entryDy=0;" edge="1" parent="1" source="3re6_Ih89YebMv_0j3Ld-233" target="3re6_Ih89YebMv_0j3Ld-242">
          <mxGeometry width="50" height="50" relative="1" as="geometry">
            <mxPoint x="370" y="844" as="sourcePoint" />
            <mxPoint x="301" y="836" as="targetPoint" />
            <Array as="points">
              <mxPoint x="350" y="847" />
              <mxPoint x="314" y="883" />
            </Array>
          </mxGeometry>
        </mxCell>
        <mxCell id="3re6_Ih89YebMv_0j3Ld-258" value="6" style="text;html=1;strokeColor=none;fillColor=none;align=center;verticalAlign=middle;whiteSpace=wrap;rounded=0;" vertex="1" parent="1">
          <mxGeometry x="320" y="849" width="15" height="13" as="geometry" />
        </mxCell>
        <mxCell id="3re6_Ih89YebMv_0j3Ld-259" value="" style="endArrow=classic;html=1;rounded=0;exitX=0;exitY=0.5;exitDx=0;exitDy=0;entryX=1;entryY=0.5;entryDx=0;entryDy=0;" edge="1" parent="1" source="3re6_Ih89YebMv_0j3Ld-240" target="3re6_Ih89YebMv_0j3Ld-233">
          <mxGeometry width="50" height="50" relative="1" as="geometry">
            <mxPoint x="286" y="909" as="sourcePoint" />
            <mxPoint x="336" y="859" as="targetPoint" />
          </mxGeometry>
        </mxCell>
        <mxCell id="3re6_Ih89YebMv_0j3Ld-260" value="" style="curved=1;endArrow=classic;html=1;rounded=0;exitX=1;exitY=0;exitDx=0;exitDy=0;entryX=1;entryY=0;entryDx=0;entryDy=0;" edge="1" parent="1" source="3re6_Ih89YebMv_0j3Ld-237" target="3re6_Ih89YebMv_0j3Ld-235">
          <mxGeometry width="50" height="50" relative="1" as="geometry">
            <mxPoint x="519" y="885.5" as="sourcePoint" />
            <mxPoint x="569" y="835.5" as="targetPoint" />
            <Array as="points">
              <mxPoint x="510" y="883" />
              <mxPoint x="490" y="857" />
            </Array>
          </mxGeometry>
        </mxCell>
        <mxCell id="3re6_Ih89YebMv_0j3Ld-261" value="6" style="text;html=1;strokeColor=none;fillColor=none;align=center;verticalAlign=middle;whiteSpace=wrap;rounded=0;" vertex="1" parent="1">
          <mxGeometry x="497" y="856.5" width="18" height="13" as="geometry" />
        </mxCell>
        <mxCell id="3re6_Ih89YebMv_0j3Ld-262" value="" style="endArrow=classic;html=1;rounded=0;exitX=0;exitY=0;exitDx=0;exitDy=0;entryX=1;entryY=1;entryDx=0;entryDy=0;" edge="1" parent="1" source="3re6_Ih89YebMv_0j3Ld-236" target="3re6_Ih89YebMv_0j3Ld-233">
          <mxGeometry width="50" height="50" relative="1" as="geometry">
            <mxPoint x="285" y="975" as="sourcePoint" />
            <mxPoint x="335" y="925" as="targetPoint" />
          </mxGeometry>
        </mxCell>
        <mxCell id="3re6_Ih89YebMv_0j3Ld-263" value="" style="curved=1;endArrow=classic;html=1;rounded=0;exitX=1;exitY=1;exitDx=0;exitDy=0;entryX=1;entryY=0.5;entryDx=0;entryDy=0;" edge="1" parent="1" source="3re6_Ih89YebMv_0j3Ld-237" target="3re6_Ih89YebMv_0j3Ld-241">
          <mxGeometry width="50" height="50" relative="1" as="geometry">
            <mxPoint x="515" y="954" as="sourcePoint" />
            <mxPoint x="508" y="981" as="targetPoint" />
            <Array as="points">
              <mxPoint x="510" y="937" />
              <mxPoint x="491" y="959" />
            </Array>
          </mxGeometry>
        </mxCell>
        <mxCell id="3re6_Ih89YebMv_0j3Ld-264" value="5" style="text;html=1;strokeColor=none;fillColor=none;align=center;verticalAlign=middle;whiteSpace=wrap;rounded=0;" vertex="1" parent="1">
          <mxGeometry x="504" y="941" width="20" height="13" as="geometry" />
        </mxCell>
        <mxCell id="3re6_Ih89YebMv_0j3Ld-265" value="" style="curved=1;endArrow=classic;html=1;rounded=0;exitX=0;exitY=0.5;exitDx=0;exitDy=0;entryX=0;entryY=1;entryDx=0;entryDy=0;" edge="1" parent="1" source="3re6_Ih89YebMv_0j3Ld-234" target="3re6_Ih89YebMv_0j3Ld-232">
          <mxGeometry width="50" height="50" relative="1" as="geometry">
            <mxPoint x="315.5" y="1019" as="sourcePoint" />
            <mxPoint x="305.5" y="941" as="targetPoint" />
            <Array as="points">
              <mxPoint x="338" y="960" />
              <mxPoint x="322" y="937" />
            </Array>
          </mxGeometry>
        </mxCell>
        <mxCell id="3re6_Ih89YebMv_0j3Ld-266" value="5" style="text;html=1;strokeColor=none;fillColor=none;align=center;verticalAlign=middle;whiteSpace=wrap;rounded=0;" vertex="1" parent="1">
          <mxGeometry x="310" y="948" width="19" height="13" as="geometry" />
        </mxCell>
        <mxCell id="3re6_Ih89YebMv_0j3Ld-267" value="" style="endArrow=classic;html=1;rounded=0;entryX=1;entryY=0.5;entryDx=0;entryDy=0;exitX=0;exitY=0.5;exitDx=0;exitDy=0;" edge="1" parent="1" source="3re6_Ih89YebMv_0j3Ld-241" target="3re6_Ih89YebMv_0j3Ld-234">
          <mxGeometry width="50" height="50" relative="1" as="geometry">
            <mxPoint x="269" y="1027" as="sourcePoint" />
            <mxPoint x="319" y="977" as="targetPoint" />
          </mxGeometry>
        </mxCell>
        <mxCell id="3re6_Ih89YebMv_0j3Ld-269" value="" style="ellipse;whiteSpace=wrap;html=1;aspect=fixed;" vertex="1" parent="1">
          <mxGeometry x="99" y="1236.5" width="20" height="20" as="geometry" />
        </mxCell>
        <mxCell id="3re6_Ih89YebMv_0j3Ld-270" value="" style="ellipse;whiteSpace=wrap;html=1;aspect=fixed;" vertex="1" parent="1">
          <mxGeometry x="144" y="1192" width="20" height="20" as="geometry" />
        </mxCell>
        <mxCell id="3re6_Ih89YebMv_0j3Ld-271" value="" style="ellipse;whiteSpace=wrap;html=1;aspect=fixed;" vertex="1" parent="1">
          <mxGeometry x="144" y="1291" width="20" height="20" as="geometry" />
        </mxCell>
        <mxCell id="3re6_Ih89YebMv_0j3Ld-272" value="" style="ellipse;whiteSpace=wrap;html=1;aspect=fixed;" vertex="1" parent="1">
          <mxGeometry x="226" y="1192" width="20" height="20" as="geometry" />
        </mxCell>
        <mxCell id="3re6_Ih89YebMv_0j3Ld-273" value="" style="ellipse;whiteSpace=wrap;html=1;aspect=fixed;" vertex="1" parent="1">
          <mxGeometry x="226" y="1291" width="20" height="20" as="geometry" />
        </mxCell>
        <mxCell id="3re6_Ih89YebMv_0j3Ld-274" value="" style="ellipse;whiteSpace=wrap;html=1;aspect=fixed;" vertex="1" parent="1">
          <mxGeometry x="268" y="1236.5" width="20" height="20" as="geometry" />
        </mxCell>
        <mxCell id="3re6_Ih89YebMv_0j3Ld-275" value="A" style="text;html=1;strokeColor=none;fillColor=none;align=center;verticalAlign=middle;whiteSpace=wrap;rounded=0;fontColor=#3333FF;" vertex="1" parent="1">
          <mxGeometry x="148.5" y="1197" width="11" height="10" as="geometry" />
        </mxCell>
        <mxCell id="3re6_Ih89YebMv_0j3Ld-276" value="B" style="text;html=1;strokeColor=none;fillColor=none;align=center;verticalAlign=middle;whiteSpace=wrap;rounded=0;fontColor=#3333FF;" vertex="1" parent="1">
          <mxGeometry x="147" y="1293.5" width="14" height="15" as="geometry" />
        </mxCell>
        <mxCell id="3re6_Ih89YebMv_0j3Ld-277" value="C" style="text;html=1;strokeColor=none;fillColor=none;align=center;verticalAlign=middle;whiteSpace=wrap;rounded=0;" vertex="1" parent="1">
          <mxGeometry x="226" y="1194.5" width="20" height="15" as="geometry" />
        </mxCell>
        <mxCell id="3re6_Ih89YebMv_0j3Ld-278" value="D" style="text;html=1;strokeColor=none;fillColor=none;align=center;verticalAlign=middle;whiteSpace=wrap;rounded=0;" vertex="1" parent="1">
          <mxGeometry x="227" y="1293.5" width="18" height="14" as="geometry" />
        </mxCell>
        <mxCell id="3re6_Ih89YebMv_0j3Ld-279" value="S" style="text;html=1;strokeColor=none;fillColor=none;align=center;verticalAlign=middle;whiteSpace=wrap;rounded=0;" vertex="1" parent="1">
          <mxGeometry x="100" y="1240" width="18" height="13" as="geometry" />
        </mxCell>
        <mxCell id="3re6_Ih89YebMv_0j3Ld-280" value="T" style="text;html=1;strokeColor=none;fillColor=none;align=center;verticalAlign=middle;whiteSpace=wrap;rounded=0;" vertex="1" parent="1">
          <mxGeometry x="271.5" y="1243" width="13" height="7.5" as="geometry" />
        </mxCell>
        <mxCell id="3re6_Ih89YebMv_0j3Ld-281" value="" style="endArrow=classic;html=1;rounded=0;entryX=0.037;entryY=0.768;entryDx=0;entryDy=0;entryPerimeter=0;" edge="1" parent="1" target="3re6_Ih89YebMv_0j3Ld-270">
          <mxGeometry width="50" height="50" relative="1" as="geometry">
            <mxPoint x="114" y="1238" as="sourcePoint" />
            <mxPoint x="141" y="1212" as="targetPoint" />
          </mxGeometry>
        </mxCell>
        <mxCell id="3re6_Ih89YebMv_0j3Ld-282" value="" style="endArrow=classic;html=1;rounded=0;entryX=0;entryY=0;entryDx=0;entryDy=0;exitX=1;exitY=1;exitDx=0;exitDy=0;" edge="1" parent="1" source="3re6_Ih89YebMv_0j3Ld-272" target="3re6_Ih89YebMv_0j3Ld-274">
          <mxGeometry width="50" height="50" relative="1" as="geometry">
            <mxPoint x="193" y="1273" as="sourcePoint" />
            <mxPoint x="243" y="1223" as="targetPoint" />
          </mxGeometry>
        </mxCell>
        <mxCell id="3re6_Ih89YebMv_0j3Ld-283" value="" style="endArrow=classic;html=1;rounded=0;exitX=1;exitY=1;exitDx=0;exitDy=0;entryX=0;entryY=0;entryDx=0;entryDy=0;" edge="1" parent="1" source="3re6_Ih89YebMv_0j3Ld-269" target="3re6_Ih89YebMv_0j3Ld-271">
          <mxGeometry width="50" height="50" relative="1" as="geometry">
            <mxPoint x="155" y="1281" as="sourcePoint" />
            <mxPoint x="205" y="1231" as="targetPoint" />
          </mxGeometry>
        </mxCell>
        <mxCell id="3re6_Ih89YebMv_0j3Ld-284" value="" style="endArrow=classic;html=1;rounded=0;exitX=0.25;exitY=1;exitDx=0;exitDy=0;entryX=0.75;entryY=0;entryDx=0;entryDy=0;" edge="1" parent="1" source="3re6_Ih89YebMv_0j3Ld-277" target="3re6_Ih89YebMv_0j3Ld-276">
          <mxGeometry width="50" height="50" relative="1" as="geometry">
            <mxPoint x="155" y="1281" as="sourcePoint" />
            <mxPoint x="241" y="1250" as="targetPoint" />
          </mxGeometry>
        </mxCell>
        <mxCell id="3re6_Ih89YebMv_0j3Ld-285" value="&lt;p style=&quot;&quot;&gt;&lt;font style=&quot;font-size: 11px;&quot;&gt;1&lt;/font&gt;&lt;/p&gt;" style="text;html=1;strokeColor=none;fillColor=none;align=center;verticalAlign=middle;whiteSpace=wrap;rounded=0;fontSize=2;" vertex="1" parent="1">
          <mxGeometry x="114" y="1209.5" width="15" height="14" as="geometry" />
        </mxCell>
        <mxCell id="3re6_Ih89YebMv_0j3Ld-286" value="1" style="text;html=1;strokeColor=none;fillColor=none;align=center;verticalAlign=middle;whiteSpace=wrap;rounded=0;fontSize=11;" vertex="1" parent="1">
          <mxGeometry x="114" y="1269" width="12" height="10" as="geometry" />
        </mxCell>
        <mxCell id="3re6_Ih89YebMv_0j3Ld-287" value="4" style="text;html=1;strokeColor=none;fillColor=none;align=center;verticalAlign=middle;whiteSpace=wrap;rounded=0;fontSize=11;" vertex="1" parent="1">
          <mxGeometry x="184" y="1187" width="11" height="13" as="geometry" />
        </mxCell>
        <mxCell id="3re6_Ih89YebMv_0j3Ld-288" value="3" style="text;html=1;strokeColor=none;fillColor=none;align=center;verticalAlign=middle;whiteSpace=wrap;rounded=0;fontSize=11;" vertex="1" parent="1">
          <mxGeometry x="188" y="1303" width="11" height="12" as="geometry" />
        </mxCell>
        <mxCell id="3re6_Ih89YebMv_0j3Ld-289" value="2" style="text;html=1;strokeColor=none;fillColor=none;align=center;verticalAlign=middle;whiteSpace=wrap;rounded=0;fontSize=11;" vertex="1" parent="1">
          <mxGeometry x="166" y="1261" width="11" height="12" as="geometry" />
        </mxCell>
        <mxCell id="3re6_Ih89YebMv_0j3Ld-290" value="2" style="text;html=1;strokeColor=none;fillColor=none;align=center;verticalAlign=middle;whiteSpace=wrap;rounded=0;fontSize=11;" vertex="1" parent="1">
          <mxGeometry x="166" y="1229" width="9" height="5" as="geometry" />
        </mxCell>
        <mxCell id="3re6_Ih89YebMv_0j3Ld-291" value="3" style="text;html=1;strokeColor=none;fillColor=none;align=center;verticalAlign=middle;whiteSpace=wrap;rounded=0;fontSize=11;" vertex="1" parent="1">
          <mxGeometry x="258" y="1212" width="10" height="8" as="geometry" />
        </mxCell>
        <mxCell id="3re6_Ih89YebMv_0j3Ld-292" value="" style="curved=1;endArrow=classic;html=1;rounded=0;exitX=0;exitY=0;exitDx=0;exitDy=0;entryX=0;entryY=0;entryDx=0;entryDy=0;" edge="1" parent="1" source="3re6_Ih89YebMv_0j3Ld-270" target="3re6_Ih89YebMv_0j3Ld-279">
          <mxGeometry width="50" height="50" relative="1" as="geometry">
            <mxPoint x="147" y="1182" as="sourcePoint" />
            <mxPoint x="78" y="1174" as="targetPoint" />
            <Array as="points">
              <mxPoint x="127" y="1185" />
              <mxPoint x="91" y="1221" />
            </Array>
          </mxGeometry>
        </mxCell>
        <mxCell id="3re6_Ih89YebMv_0j3Ld-293" value="6" style="text;html=1;strokeColor=none;fillColor=none;align=center;verticalAlign=middle;whiteSpace=wrap;rounded=0;" vertex="1" parent="1">
          <mxGeometry x="97" y="1187" width="15" height="13" as="geometry" />
        </mxCell>
        <mxCell id="3re6_Ih89YebMv_0j3Ld-294" value="" style="endArrow=classic;html=1;rounded=0;exitX=0;exitY=0.5;exitDx=0;exitDy=0;entryX=1;entryY=0.5;entryDx=0;entryDy=0;" edge="1" parent="1" source="3re6_Ih89YebMv_0j3Ld-277" target="3re6_Ih89YebMv_0j3Ld-270">
          <mxGeometry width="50" height="50" relative="1" as="geometry">
            <mxPoint x="63" y="1247" as="sourcePoint" />
            <mxPoint x="113" y="1197" as="targetPoint" />
          </mxGeometry>
        </mxCell>
        <mxCell id="3re6_Ih89YebMv_0j3Ld-295" value="" style="curved=1;endArrow=classic;html=1;rounded=0;exitX=1;exitY=0;exitDx=0;exitDy=0;entryX=1;entryY=0;entryDx=0;entryDy=0;" edge="1" parent="1" source="3re6_Ih89YebMv_0j3Ld-274" target="3re6_Ih89YebMv_0j3Ld-272">
          <mxGeometry width="50" height="50" relative="1" as="geometry">
            <mxPoint x="296" y="1223.5" as="sourcePoint" />
            <mxPoint x="346" y="1173.5" as="targetPoint" />
            <Array as="points">
              <mxPoint x="287" y="1221" />
              <mxPoint x="267" y="1195" />
            </Array>
          </mxGeometry>
        </mxCell>
        <mxCell id="3re6_Ih89YebMv_0j3Ld-296" value="6" style="text;html=1;strokeColor=none;fillColor=none;align=center;verticalAlign=middle;whiteSpace=wrap;rounded=0;" vertex="1" parent="1">
          <mxGeometry x="274" y="1194.5" width="18" height="13" as="geometry" />
        </mxCell>
        <mxCell id="3re6_Ih89YebMv_0j3Ld-297" value="" style="endArrow=classic;html=1;rounded=0;exitX=0;exitY=0;exitDx=0;exitDy=0;entryX=1;entryY=1;entryDx=0;entryDy=0;" edge="1" parent="1" source="3re6_Ih89YebMv_0j3Ld-273" target="3re6_Ih89YebMv_0j3Ld-270">
          <mxGeometry width="50" height="50" relative="1" as="geometry">
            <mxPoint x="62" y="1313" as="sourcePoint" />
            <mxPoint x="112" y="1263" as="targetPoint" />
          </mxGeometry>
        </mxCell>
        <mxCell id="3re6_Ih89YebMv_0j3Ld-298" value="" style="curved=1;endArrow=classic;html=1;rounded=0;exitX=1;exitY=1;exitDx=0;exitDy=0;entryX=1;entryY=0.5;entryDx=0;entryDy=0;" edge="1" parent="1" source="3re6_Ih89YebMv_0j3Ld-274" target="3re6_Ih89YebMv_0j3Ld-278">
          <mxGeometry width="50" height="50" relative="1" as="geometry">
            <mxPoint x="292" y="1292" as="sourcePoint" />
            <mxPoint x="285" y="1319" as="targetPoint" />
            <Array as="points">
              <mxPoint x="287" y="1275" />
              <mxPoint x="268" y="1297" />
            </Array>
          </mxGeometry>
        </mxCell>
        <mxCell id="3re6_Ih89YebMv_0j3Ld-299" value="5" style="text;html=1;strokeColor=none;fillColor=none;align=center;verticalAlign=middle;whiteSpace=wrap;rounded=0;" vertex="1" parent="1">
          <mxGeometry x="281" y="1279" width="20" height="13" as="geometry" />
        </mxCell>
        <mxCell id="3re6_Ih89YebMv_0j3Ld-300" value="" style="curved=1;endArrow=classic;html=1;rounded=0;exitX=0;exitY=0.5;exitDx=0;exitDy=0;entryX=0;entryY=1;entryDx=0;entryDy=0;" edge="1" parent="1" source="3re6_Ih89YebMv_0j3Ld-271" target="3re6_Ih89YebMv_0j3Ld-269">
          <mxGeometry width="50" height="50" relative="1" as="geometry">
            <mxPoint x="92.5" y="1357" as="sourcePoint" />
            <mxPoint x="82.5" y="1279" as="targetPoint" />
            <Array as="points">
              <mxPoint x="115" y="1298" />
              <mxPoint x="99" y="1275" />
            </Array>
          </mxGeometry>
        </mxCell>
        <mxCell id="3re6_Ih89YebMv_0j3Ld-301" value="5" style="text;html=1;strokeColor=none;fillColor=none;align=center;verticalAlign=middle;whiteSpace=wrap;rounded=0;" vertex="1" parent="1">
          <mxGeometry x="87" y="1286" width="19" height="13" as="geometry" />
        </mxCell>
        <mxCell id="3re6_Ih89YebMv_0j3Ld-302" value="" style="endArrow=classic;html=1;rounded=0;entryX=1;entryY=0.5;entryDx=0;entryDy=0;exitX=0;exitY=0.5;exitDx=0;exitDy=0;" edge="1" parent="1" source="3re6_Ih89YebMv_0j3Ld-278" target="3re6_Ih89YebMv_0j3Ld-271">
          <mxGeometry width="50" height="50" relative="1" as="geometry">
            <mxPoint x="46" y="1365" as="sourcePoint" />
            <mxPoint x="96" y="1315" as="targetPoint" />
          </mxGeometry>
        </mxCell>
        <mxCell id="3re6_Ih89YebMv_0j3Ld-339" value="" style="ellipse;whiteSpace=wrap;html=1;aspect=fixed;" vertex="1" parent="1">
          <mxGeometry x="97" y="1429.5" width="20" height="20" as="geometry" />
        </mxCell>
        <mxCell id="3re6_Ih89YebMv_0j3Ld-340" value="" style="ellipse;whiteSpace=wrap;html=1;aspect=fixed;" vertex="1" parent="1">
          <mxGeometry x="142" y="1385" width="20" height="20" as="geometry" />
        </mxCell>
        <mxCell id="3re6_Ih89YebMv_0j3Ld-341" value="" style="ellipse;whiteSpace=wrap;html=1;aspect=fixed;" vertex="1" parent="1">
          <mxGeometry x="142" y="1484" width="20" height="20" as="geometry" />
        </mxCell>
        <mxCell id="3re6_Ih89YebMv_0j3Ld-342" value="" style="ellipse;whiteSpace=wrap;html=1;aspect=fixed;" vertex="1" parent="1">
          <mxGeometry x="224" y="1385" width="20" height="20" as="geometry" />
        </mxCell>
        <mxCell id="3re6_Ih89YebMv_0j3Ld-343" value="" style="ellipse;whiteSpace=wrap;html=1;aspect=fixed;" vertex="1" parent="1">
          <mxGeometry x="224" y="1484" width="20" height="20" as="geometry" />
        </mxCell>
        <mxCell id="3re6_Ih89YebMv_0j3Ld-344" value="" style="ellipse;whiteSpace=wrap;html=1;aspect=fixed;" vertex="1" parent="1">
          <mxGeometry x="266" y="1429.5" width="20" height="20" as="geometry" />
        </mxCell>
        <mxCell id="3re6_Ih89YebMv_0j3Ld-345" value="A" style="text;html=1;strokeColor=none;fillColor=none;align=center;verticalAlign=middle;whiteSpace=wrap;rounded=0;" vertex="1" parent="1">
          <mxGeometry x="146.5" y="1390" width="11" height="10" as="geometry" />
        </mxCell>
        <mxCell id="3re6_Ih89YebMv_0j3Ld-346" value="B" style="text;html=1;strokeColor=none;fillColor=none;align=center;verticalAlign=middle;whiteSpace=wrap;rounded=0;" vertex="1" parent="1">
          <mxGeometry x="145" y="1486.5" width="14" height="15" as="geometry" />
        </mxCell>
        <mxCell id="3re6_Ih89YebMv_0j3Ld-347" value="C" style="text;html=1;strokeColor=none;fillColor=none;align=center;verticalAlign=middle;whiteSpace=wrap;rounded=0;" vertex="1" parent="1">
          <mxGeometry x="224" y="1387.5" width="20" height="15" as="geometry" />
        </mxCell>
        <mxCell id="3re6_Ih89YebMv_0j3Ld-348" value="D" style="text;html=1;strokeColor=none;fillColor=none;align=center;verticalAlign=middle;whiteSpace=wrap;rounded=0;" vertex="1" parent="1">
          <mxGeometry x="225" y="1486.5" width="18" height="14" as="geometry" />
        </mxCell>
        <mxCell id="3re6_Ih89YebMv_0j3Ld-349" value="S" style="text;html=1;strokeColor=none;fillColor=none;align=center;verticalAlign=middle;whiteSpace=wrap;rounded=0;" vertex="1" parent="1">
          <mxGeometry x="98" y="1433" width="18" height="13" as="geometry" />
        </mxCell>
        <mxCell id="3re6_Ih89YebMv_0j3Ld-350" value="T" style="text;html=1;strokeColor=none;fillColor=none;align=center;verticalAlign=middle;whiteSpace=wrap;rounded=0;" vertex="1" parent="1">
          <mxGeometry x="269.5" y="1436" width="13" height="7.5" as="geometry" />
        </mxCell>
        <mxCell id="3re6_Ih89YebMv_0j3Ld-351" value="" style="endArrow=classic;html=1;rounded=0;entryX=0.037;entryY=0.768;entryDx=0;entryDy=0;entryPerimeter=0;strokeColor=#000000;fontColor=#000000;" edge="1" parent="1" target="3re6_Ih89YebMv_0j3Ld-340">
          <mxGeometry width="50" height="50" relative="1" as="geometry">
            <mxPoint x="112" y="1431" as="sourcePoint" />
            <mxPoint x="139" y="1405" as="targetPoint" />
          </mxGeometry>
        </mxCell>
        <mxCell id="3re6_Ih89YebMv_0j3Ld-352" value="" style="endArrow=classic;html=1;rounded=0;entryX=0;entryY=0.5;entryDx=0;entryDy=0;strokeColor=#3333FF;" edge="1" parent="1" target="3re6_Ih89YebMv_0j3Ld-347">
          <mxGeometry width="50" height="50" relative="1" as="geometry">
            <mxPoint x="162" y="1394.71" as="sourcePoint" />
            <mxPoint x="223" y="1394" as="targetPoint" />
          </mxGeometry>
        </mxCell>
        <mxCell id="3re6_Ih89YebMv_0j3Ld-353" value="" style="endArrow=classic;html=1;rounded=0;entryX=0;entryY=0;entryDx=0;entryDy=0;exitX=1;exitY=1;exitDx=0;exitDy=0;strokeColor=#000000;" edge="1" parent="1" source="3re6_Ih89YebMv_0j3Ld-342" target="3re6_Ih89YebMv_0j3Ld-344">
          <mxGeometry width="50" height="50" relative="1" as="geometry">
            <mxPoint x="191" y="1466" as="sourcePoint" />
            <mxPoint x="241" y="1416" as="targetPoint" />
          </mxGeometry>
        </mxCell>
        <mxCell id="3re6_Ih89YebMv_0j3Ld-354" value="" style="endArrow=classic;html=1;rounded=0;entryX=0;entryY=1;entryDx=0;entryDy=0;exitX=0.5;exitY=0;exitDx=0;exitDy=0;" edge="1" parent="1" source="3re6_Ih89YebMv_0j3Ld-343" target="3re6_Ih89YebMv_0j3Ld-344">
          <mxGeometry width="50" height="50" relative="1" as="geometry">
            <mxPoint x="191" y="1466" as="sourcePoint" />
            <mxPoint x="241" y="1416" as="targetPoint" />
          </mxGeometry>
        </mxCell>
        <mxCell id="3re6_Ih89YebMv_0j3Ld-355" value="" style="endArrow=classic;html=1;rounded=0;entryX=0;entryY=0.5;entryDx=0;entryDy=0;exitX=1;exitY=0.5;exitDx=0;exitDy=0;" edge="1" parent="1" source="3re6_Ih89YebMv_0j3Ld-341" target="3re6_Ih89YebMv_0j3Ld-348">
          <mxGeometry width="50" height="50" relative="1" as="geometry">
            <mxPoint x="153" y="1474" as="sourcePoint" />
            <mxPoint x="203" y="1424" as="targetPoint" />
          </mxGeometry>
        </mxCell>
        <mxCell id="3re6_Ih89YebMv_0j3Ld-356" value="" style="endArrow=classic;html=1;rounded=0;exitX=1;exitY=1;exitDx=0;exitDy=0;entryX=0;entryY=0;entryDx=0;entryDy=0;" edge="1" parent="1" source="3re6_Ih89YebMv_0j3Ld-339" target="3re6_Ih89YebMv_0j3Ld-341">
          <mxGeometry width="50" height="50" relative="1" as="geometry">
            <mxPoint x="153" y="1474" as="sourcePoint" />
            <mxPoint x="203" y="1424" as="targetPoint" />
          </mxGeometry>
        </mxCell>
        <mxCell id="3re6_Ih89YebMv_0j3Ld-357" value="" style="endArrow=classic;html=1;rounded=0;exitX=1;exitY=0;exitDx=0;exitDy=0;entryX=0;entryY=1;entryDx=0;entryDy=0;strokeColor=#3333FF;" edge="1" parent="1" source="3re6_Ih89YebMv_0j3Ld-341" target="3re6_Ih89YebMv_0j3Ld-342">
          <mxGeometry width="50" height="50" relative="1" as="geometry">
            <mxPoint x="153" y="1474" as="sourcePoint" />
            <mxPoint x="203" y="1424" as="targetPoint" />
          </mxGeometry>
        </mxCell>
        <mxCell id="3re6_Ih89YebMv_0j3Ld-358" value="" style="endArrow=classic;html=1;rounded=0;exitX=1;exitY=1;exitDx=0;exitDy=0;entryX=0.25;entryY=0;entryDx=0;entryDy=0;" edge="1" parent="1" source="3re6_Ih89YebMv_0j3Ld-340" target="3re6_Ih89YebMv_0j3Ld-348">
          <mxGeometry width="50" height="50" relative="1" as="geometry">
            <mxPoint x="153" y="1474" as="sourcePoint" />
            <mxPoint x="203" y="1424" as="targetPoint" />
          </mxGeometry>
        </mxCell>
        <mxCell id="3re6_Ih89YebMv_0j3Ld-359" value="&lt;p style=&quot;&quot;&gt;&lt;font style=&quot;font-size: 11px;&quot;&gt;7&lt;/font&gt;&lt;/p&gt;" style="text;html=1;strokeColor=none;fillColor=none;align=center;verticalAlign=middle;whiteSpace=wrap;rounded=0;fontSize=2;" vertex="1" parent="1">
          <mxGeometry x="112" y="1402.5" width="15" height="14" as="geometry" />
        </mxCell>
        <mxCell id="3re6_Ih89YebMv_0j3Ld-360" value="6" style="text;html=1;strokeColor=none;fillColor=none;align=center;verticalAlign=middle;whiteSpace=wrap;rounded=0;fontSize=11;" vertex="1" parent="1">
          <mxGeometry x="112" y="1462" width="12" height="10" as="geometry" />
        </mxCell>
        <mxCell id="3re6_Ih89YebMv_0j3Ld-361" value="4" style="text;html=1;strokeColor=none;fillColor=none;align=center;verticalAlign=middle;whiteSpace=wrap;rounded=0;fontSize=11;" vertex="1" parent="1">
          <mxGeometry x="182" y="1380" width="11" height="13" as="geometry" />
        </mxCell>
        <mxCell id="3re6_Ih89YebMv_0j3Ld-362" value="3" style="text;html=1;strokeColor=none;fillColor=none;align=center;verticalAlign=middle;whiteSpace=wrap;rounded=0;fontSize=11;" vertex="1" parent="1">
          <mxGeometry x="186" y="1496" width="11" height="12" as="geometry" />
        </mxCell>
        <mxCell id="3re6_Ih89YebMv_0j3Ld-363" value="2" style="text;html=1;strokeColor=none;fillColor=none;align=center;verticalAlign=middle;whiteSpace=wrap;rounded=0;fontSize=11;" vertex="1" parent="1">
          <mxGeometry x="164" y="1454" width="11" height="12" as="geometry" />
        </mxCell>
        <mxCell id="3re6_Ih89YebMv_0j3Ld-364" value="2" style="text;html=1;strokeColor=none;fillColor=none;align=center;verticalAlign=middle;whiteSpace=wrap;rounded=0;fontSize=11;" vertex="1" parent="1">
          <mxGeometry x="164" y="1422" width="9" height="5" as="geometry" />
        </mxCell>
        <mxCell id="3re6_Ih89YebMv_0j3Ld-365" value="9" style="text;html=1;strokeColor=none;fillColor=none;align=center;verticalAlign=middle;whiteSpace=wrap;rounded=0;fontSize=11;" vertex="1" parent="1">
          <mxGeometry x="256" y="1405" width="10" height="8" as="geometry" />
        </mxCell>
        <mxCell id="3re6_Ih89YebMv_0j3Ld-366" value="5" style="text;html=1;strokeColor=none;fillColor=none;align=center;verticalAlign=middle;whiteSpace=wrap;rounded=0;fontSize=11;" vertex="1" parent="1">
          <mxGeometry x="256" y="1466" width="7" height="13" as="geometry" />
        </mxCell>
      </root>
    </mxGraphModel>
  </diagram>
</mxfile>
